<svg xmlns="http://www.w3.org/2000/svg" xmlns:xlink="http://www.w3.org/1999/xlink" viewBox="190 242 213 80" preserveAspectRatio="xMidYMid meet" version="1.0"><defs><clipPath id="d44273ed0b"><path d="M 288.917969 253.007812 L 366.179688 253.007812 L 366.179688 289.65625 L 288.917969 289.65625 Z M 288.917969 253.007812 " clip-rule="nonzero"/></clipPath><clipPath id="6dd2c5e5ed"><path d="M 288.457031 254.679688 L 288.457031 287.816406 C 288.457031 289.144531 289.53125 290.214844 290.855469 290.214844 L 365.390625 290.214844 C 366.714844 290.214844 367.792969 289.144531 367.792969 287.816406 L 367.792969 254.679688 C 367.792969 253.355469 366.714844 252.28125 365.390625 252.28125 L 290.855469 252.28125 C 289.53125 252.28125 288.457031 253.355469 288.457031 254.679688 Z M 288.457031 254.679688 " clip-rule="nonzero"/></clipPath><clipPath id="37b4afa286"><path d="M 288.457031 254.679688 L 288.457031 287.816406 C 288.457031 289.144531 289.53125 290.214844 290.855469 290.214844 L 365.390625 290.214844 C 366.714844 290.214844 367.792969 289.144531 367.792969 287.816406 L 367.792969 254.679688 C 367.792969 253.355469 366.714844 252.28125 365.390625 252.28125 L 290.855469 252.28125 C 289.53125 252.28125 288.457031 253.355469 288.457031 254.679688 Z M 288.457031 254.679688 " clip-rule="nonzero"/></clipPath><clipPath id="ea1d825854"><path d="M 304.8125 289.453125 C 304.359375 289.386719 303.914062 289.304688 303.46875 289.199219 C 303.027344 289.089844 302.589844 288.964844 302.15625 288.816406 C 301.722656 288.671875 301.300781 288.503906 300.882812 288.316406 C 300.46875 288.128906 300.0625 287.925781 299.664062 287.699219 C 299.269531 287.472656 298.882812 287.230469 298.507812 286.96875 C 298.136719 286.707031 297.773438 286.429688 297.425781 286.136719 C 297.078125 285.839844 296.746094 285.53125 296.425781 285.203125 C 296.105469 284.878906 295.804688 284.535156 295.519531 284.183594 C 295.230469 283.828125 294.960938 283.460938 294.710938 283.082031 C 294.457031 282.699219 294.222656 282.308594 294.007812 281.90625 C 293.792969 281.503906 293.597656 281.09375 293.417969 280.671875 C 293.242188 280.253906 293.085938 279.824219 292.949219 279.390625 C 292.8125 278.957031 292.695312 278.515625 292.597656 278.066406 C 292.503906 277.621094 292.429688 277.171875 292.378906 276.71875 C 292.324219 276.265625 292.292969 275.8125 292.28125 275.355469 C 292.269531 274.902344 292.28125 274.445312 292.3125 273.988281 C 292.34375 273.535156 292.398438 273.082031 292.472656 272.632812 C 292.546875 272.183594 292.644531 271.738281 292.761719 271.296875 C 292.875 270.855469 293.011719 270.417969 293.167969 269.992188 C 293.328125 269.5625 293.503906 269.144531 293.699219 268.730469 C 293.898438 268.320312 294.113281 267.917969 294.347656 267.527344 C 294.582031 267.136719 294.832031 266.757812 295.101562 266.390625 C 295.371094 266.019531 295.660156 265.667969 295.964844 265.324219 C 296.265625 264.984375 296.582031 264.660156 296.917969 264.347656 C 297.25 264.039062 297.597656 263.742188 297.960938 263.464844 C 298.320312 263.1875 298.695312 262.925781 299.082031 262.683594 C 299.464844 262.441406 299.863281 262.214844 300.269531 262.007812 C 300.675781 261.800781 301.09375 261.617188 301.519531 261.449219 C 301.941406 261.28125 302.371094 261.136719 302.8125 261.007812 C 303.25 260.882812 303.691406 260.777344 304.140625 260.691406 C 304.589844 260.605469 305.039062 260.542969 305.496094 260.5 C 305.949219 260.457031 306.402344 260.4375 306.859375 260.4375 L 306.589844 260.4375 C 312.410156 260.039062 317.632812 264.769531 321.339844 269.070312 C 321.859375 269.671875 322.371094 270.28125 322.867188 270.894531 C 324.011719 272.394531 330.667969 280.410156 330.667969 280.410156 C 331.773438 281.660156 332.953125 282.835938 334.199219 283.945312 C 336.710938 286.148438 339.566406 287.878906 342.765625 288.871094 C 343.996094 289.253906 345.253906 289.5 346.539062 289.601562 C 347.011719 289.636719 347.488281 289.65625 347.960938 289.65625 C 348.433594 289.65625 348.910156 289.636719 349.382812 289.597656 C 349.855469 289.5625 350.324219 289.507812 350.792969 289.433594 C 351.261719 289.359375 351.726562 289.265625 352.191406 289.15625 C 352.652344 289.046875 353.105469 288.917969 353.558594 288.769531 C 354.011719 288.625 354.453125 288.460938 354.894531 288.28125 C 355.332031 288.101562 355.761719 287.902344 356.1875 287.6875 C 356.609375 287.472656 357.023438 287.242188 357.429688 286.996094 C 357.832031 286.75 358.230469 286.488281 358.613281 286.210938 C 358.996094 285.933594 359.371094 285.640625 359.734375 285.332031 C 360.097656 285.027344 360.445312 284.707031 360.78125 284.371094 C 361.117188 284.039062 361.441406 283.691406 361.753906 283.332031 C 362.0625 282.972656 362.355469 282.601562 362.636719 282.21875 C 362.917969 281.835938 363.183594 281.445312 363.433594 281.042969 C 363.683594 280.636719 363.917969 280.226562 364.136719 279.804688 C 364.355469 279.382812 364.554688 278.953125 364.738281 278.519531 C 364.925781 278.082031 365.089844 277.636719 365.242188 277.1875 C 365.390625 276.738281 365.523438 276.28125 365.636719 275.820312 C 365.753906 275.359375 365.847656 274.894531 365.925781 274.425781 C 366.003906 273.960938 366.066406 273.488281 366.105469 273.019531 C 366.148438 272.542969 366.167969 272.070312 366.175781 271.597656 C 366.179688 271.121094 366.164062 270.648438 366.132812 270.175781 C 366.097656 269.703125 366.046875 269.230469 365.980469 268.761719 C 365.910156 268.292969 365.820312 267.824219 365.714844 267.363281 C 365.609375 266.902344 365.488281 266.441406 365.34375 265.992188 C 365.203125 265.539062 365.042969 265.089844 364.867188 264.652344 C 364.691406 264.210938 364.496094 263.777344 364.289062 263.351562 C 364.078125 262.925781 363.851562 262.511719 363.609375 262.101562 C 363.367188 261.695312 363.105469 261.296875 362.832031 260.910156 C 362.558594 260.523438 362.269531 260.144531 361.96875 259.78125 C 361.664062 259.417969 361.347656 259.066406 361.019531 258.722656 C 360.6875 258.382812 360.34375 258.058594 359.988281 257.746094 C 355.527344 253.816406 348.507812 252.285156 342.773438 253.921875 C 336.484375 255.714844 331.640625 260.5625 327.480469 265.371094 C 324.109375 261.5 320.464844 257.859375 316.253906 255.574219 C 313.46875 254.066406 310.433594 253.148438 307.058594 253.148438 L 307.019531 253.148438 C 306.90625 253.148438 306.796875 253.148438 306.679688 253.148438 C 306.113281 253.164062 305.546875 253.203125 304.984375 253.269531 C 304.421875 253.339844 303.863281 253.433594 303.308594 253.550781 C 302.753906 253.671875 302.203125 253.816406 301.664062 253.988281 C 301.121094 254.160156 300.589844 254.355469 300.066406 254.574219 C 299.542969 254.796875 299.03125 255.039062 298.53125 255.308594 C 298.03125 255.578125 297.546875 255.867188 297.074219 256.183594 C 296.601562 256.496094 296.144531 256.832031 295.699219 257.1875 C 295.261719 257.542969 294.835938 257.921875 294.429688 258.316406 C 294.023438 258.714844 293.636719 259.128906 293.269531 259.558594 C 292.902344 259.992188 292.554688 260.441406 292.226562 260.902344 C 291.902344 261.371094 291.597656 261.847656 291.316406 262.339844 C 291.035156 262.832031 290.777344 263.339844 290.542969 263.855469 C 290.308594 264.371094 290.101562 264.898438 289.917969 265.4375 C 289.730469 265.972656 289.574219 266.515625 289.4375 267.066406 C 289.304688 267.621094 289.199219 268.175781 289.113281 268.738281 C 289.035156 269.300781 288.976562 269.863281 288.949219 270.429688 C 288.917969 270.996094 288.917969 271.566406 288.941406 272.132812 C 288.964844 272.699219 289.011719 273.261719 289.089844 273.824219 C 289.167969 274.386719 289.269531 274.945312 289.398438 275.496094 C 289.527344 276.050781 289.679688 276.597656 289.859375 277.136719 C 290.039062 277.671875 290.242188 278.203125 290.472656 278.722656 C 290.699219 279.242188 290.953125 279.746094 291.230469 280.246094 C 291.503906 280.738281 291.804688 281.222656 292.125 281.691406 C 292.449219 282.15625 292.789062 282.609375 293.152344 283.042969 C 293.515625 283.480469 293.898438 283.898438 294.300781 284.300781 C 294.703125 284.699219 295.125 285.078125 295.5625 285.441406 C 296 285.800781 296.457031 286.140625 296.925781 286.457031 C 297.394531 286.777344 297.878906 287.074219 298.375 287.347656 C 298.871094 287.621094 299.382812 287.871094 299.902344 288.09375 C 300.421875 288.320312 300.953125 288.519531 301.492188 288.699219 C 302.03125 288.875 302.578125 289.023438 303.132812 289.148438 C 303.683594 289.273438 304.246094 289.375 304.808594 289.449219 Z M 343.542969 261.378906 C 343.914062 261.21875 344.292969 261.074219 344.683594 260.953125 C 345.070312 260.832031 345.464844 260.734375 345.863281 260.65625 C 346.261719 260.582031 346.667969 260.527344 347.070312 260.492188 C 347.476562 260.460938 347.882812 260.449219 348.289062 260.464844 C 348.695312 260.476562 349.097656 260.511719 349.503906 260.570312 C 349.90625 260.628906 350.300781 260.707031 350.695312 260.808594 C 351.089844 260.910156 351.476562 261.035156 351.855469 261.179688 C 352.238281 261.324219 352.605469 261.488281 352.96875 261.675781 C 353.332031 261.863281 353.679688 262.066406 354.019531 262.292969 C 354.359375 262.519531 354.683594 262.761719 354.996094 263.023438 C 355.308594 263.285156 355.601562 263.5625 355.882812 263.855469 C 356.164062 264.148438 356.425781 264.457031 356.675781 264.78125 C 356.921875 265.105469 357.148438 265.441406 357.355469 265.789062 C 357.566406 266.140625 357.753906 266.5 357.925781 266.867188 C 358.09375 267.238281 358.242188 267.617188 358.367188 268.003906 C 358.496094 268.386719 358.601562 268.78125 358.683594 269.179688 C 358.769531 269.578125 358.828125 269.980469 358.867188 270.382812 C 358.90625 270.789062 358.921875 271.191406 358.917969 271.601562 C 358.910156 272.007812 358.882812 272.410156 358.832031 272.816406 C 358.777344 273.21875 358.707031 273.617188 358.609375 274.011719 C 358.511719 274.410156 358.394531 274.796875 358.257812 275.179688 C 358.117188 275.5625 357.957031 275.933594 357.777344 276.300781 C 357.597656 276.664062 357.398438 277.015625 357.179688 277.359375 C 356.957031 277.699219 356.722656 278.03125 356.464844 278.347656 C 356.207031 278.660156 355.933594 278.960938 355.644531 279.246094 C 355.355469 279.53125 355.050781 279.800781 354.730469 280.050781 C 354.410156 280.304688 354.082031 280.535156 353.734375 280.753906 C 353.386719 280.964844 353.03125 281.160156 352.664062 281.335938 C 352.296875 281.511719 351.921875 281.664062 351.539062 281.796875 C 351.152344 281.929688 350.761719 282.042969 350.367188 282.132812 C 349.972656 282.222656 349.570312 282.289062 349.167969 282.335938 C 348.761719 282.378906 348.355469 282.402344 347.949219 282.402344 C 347.128906 282.417969 346.320312 282.332031 345.523438 282.132812 C 343.996094 281.789062 342.605469 281.144531 341.355469 280.207031 C 338.265625 278.117188 335.332031 274.761719 332.296875 271.113281 C 335.882812 266.84375 339.457031 263.066406 343.542969 261.378906 Z M 304.8125 289.453125 C 305.402344 289.535156 305.992188 289.582031 306.585938 289.59375 C 305.984375 289.574219 305.390625 289.527344 304.8125 289.453125 Z M 304.8125 289.453125 " clip-rule="nonzero"/></clipPath><linearGradient x1="22.157785" gradientTransform="matrix(-0.169535, 0, 0, -0.169535, 369.93573, 313.417707)" y1="247.82001" x2="477.88904" gradientUnits="userSpaceOnUse" y2="247.82001" id="8e429bbad9"><stop stop-opacity="1" stop-color="rgb(12.159729%, 47.059631%, 70.588684%)" offset="0"/><stop stop-opacity="1" stop-color="rgb(12.159729%, 47.253418%, 70.774841%)" offset="0.0078125"/><stop stop-opacity="1" stop-color="rgb(12.159729%, 47.644043%, 70.970154%)" offset="0.015625"/><stop stop-opacity="1" stop-color="rgb(11.959839%, 48.060608%, 71.174622%)" offset="0.0195312"/><stop stop-opacity="1" stop-color="rgb(11.759949%, 48.28186%, 71.369934%)" offset="0.0234375"/><stop stop-opacity="1" stop-color="rgb(11.759949%, 48.466492%, 71.380615%)" offset="0.03125"/><stop stop-opacity="1" stop-color="rgb(11.759949%, 48.838806%, 71.575928%)" offset="0.0390625"/><stop stop-opacity="1" stop-color="rgb(11.759949%, 49.217224%, 71.95282%)" offset="0.046875"/><stop stop-opacity="1" stop-color="rgb(11.564636%, 49.603271%, 72.15271%)" offset="0.0546875"/><stop stop-opacity="1" stop-color="rgb(11.369324%, 49.998474%, 72.329712%)" offset="0.0585938"/><stop stop-opacity="1" stop-color="rgb(11.369324%, 50.19989%, 72.50061%)" offset="0.0625"/><stop stop-opacity="1" stop-color="rgb(11.369324%, 50.408936%, 72.540283%)" offset="0.0664062"/><stop stop-opacity="1" stop-color="rgb(11.369324%, 50.619507%, 72.579956%)" offset="0.0703125"/><stop stop-opacity="1" stop-color="rgb(11.36322%, 50.993347%, 72.758484%)" offset="0.0742188"/><stop stop-opacity="1" stop-color="rgb(11.357117%, 51.368713%, 72.938538%)" offset="0.078125"/><stop stop-opacity="1" stop-color="rgb(11.167908%, 51.560974%, 72.938538%)" offset="0.0859375"/><stop stop-opacity="1" stop-color="rgb(10.978699%, 51.94397%, 73.13385%)" offset="0.09375"/><stop stop-opacity="1" stop-color="rgb(10.978699%, 52.320862%, 73.506165%)" offset="0.101562"/><stop stop-opacity="1" stop-color="rgb(10.960388%, 52.722168%, 73.706055%)" offset="0.105469"/><stop stop-opacity="1" stop-color="rgb(10.943604%, 52.938843%, 73.728943%)" offset="0.109375"/><stop stop-opacity="1" stop-color="rgb(10.766602%, 53.134155%, 73.924255%)" offset="0.117188"/><stop stop-opacity="1" stop-color="rgb(10.5896%, 53.529358%, 74.119568%)" offset="0.121094"/><stop stop-opacity="1" stop-color="rgb(10.5896%, 53.729248%, 74.119568%)" offset="0.125"/><stop stop-opacity="1" stop-color="rgb(10.5896%, 53.913879%, 74.313354%)" offset="0.132812"/><stop stop-opacity="1" stop-color="rgb(10.5896%, 54.286194%, 74.685669%)" offset="0.140625"/><stop stop-opacity="1" stop-color="rgb(10.394287%, 54.707336%, 74.880981%)" offset="0.144531"/><stop stop-opacity="1" stop-color="rgb(10.198975%, 54.942322%, 74.899292%)" offset="0.148438"/><stop stop-opacity="1" stop-color="rgb(10.198975%, 55.128479%, 75.094604%)" offset="0.15625"/><stop stop-opacity="1" stop-color="rgb(10.198975%, 55.503845%, 75.291443%)" offset="0.164062"/><stop stop-opacity="1" stop-color="rgb(10.198975%, 55.886841%, 75.491333%)" offset="0.167969"/><stop stop-opacity="1" stop-color="rgb(10.198975%, 56.079102%, 75.689697%)" offset="0.171875"/><stop stop-opacity="1" stop-color="rgb(10.014343%, 56.274414%, 75.689697%)" offset="0.179688"/><stop stop-opacity="1" stop-color="rgb(9.814453%, 56.663513%, 75.883484%)" offset="0.1875"/><stop stop-opacity="1" stop-color="rgb(9.799194%, 57.069397%, 76.274109%)" offset="0.191406"/><stop stop-opacity="1" stop-color="rgb(9.799194%, 57.279968%, 76.469421%)" offset="0.195312"/><stop stop-opacity="1" stop-color="rgb(9.799194%, 57.470703%, 76.475525%)" offset="0.203125"/><stop stop-opacity="1" stop-color="rgb(9.606934%, 57.850647%, 76.669312%)" offset="0.210938"/><stop stop-opacity="1" stop-color="rgb(9.411621%, 58.416748%, 76.858521%)" offset="0.214844"/><stop stop-opacity="1" stop-color="rgb(9.408569%, 58.795166%, 76.858521%)" offset="0.21875"/><stop stop-opacity="1" stop-color="rgb(9.408569%, 58.984375%, 77.053833%)" offset="0.226562"/><stop stop-opacity="1" stop-color="rgb(9.408569%, 59.391785%, 77.449036%)" offset="0.230469"/><stop stop-opacity="1" stop-color="rgb(9.408569%, 59.609985%, 77.648926%)" offset="0.234375"/><stop stop-opacity="1" stop-color="rgb(9.213257%, 59.803772%, 77.648926%)" offset="0.242188"/><stop stop-opacity="1" stop-color="rgb(9.01947%, 60.194397%, 77.844238%)" offset="0.25"/><stop stop-opacity="1" stop-color="rgb(9.01947%, 60.574341%, 78.039551%)" offset="0.257812"/><stop stop-opacity="1" stop-color="rgb(9.01947%, 60.951233%, 78.233337%)" offset="0.265625"/><stop stop-opacity="1" stop-color="rgb(8.998108%, 61.355591%, 78.623962%)" offset="0.269531"/><stop stop-opacity="1" stop-color="rgb(8.976746%, 61.569214%, 78.819275%)" offset="0.273438"/><stop stop-opacity="1" stop-color="rgb(8.802795%, 61.764526%, 78.819275%)" offset="0.28125"/><stop stop-opacity="1" stop-color="rgb(8.628845%, 62.156677%, 79.019165%)" offset="0.285156"/><stop stop-opacity="1" stop-color="rgb(8.628845%, 62.355042%, 79.219055%)" offset="0.289063"/><stop stop-opacity="1" stop-color="rgb(8.628845%, 62.55188%, 79.219055%)" offset="0.292969"/><stop stop-opacity="1" stop-color="rgb(8.628845%, 62.748718%, 79.219055%)" offset="0.296875"/><stop stop-opacity="1" stop-color="rgb(8.628845%, 62.944031%, 79.414368%)" offset="0.304688"/><stop stop-opacity="1" stop-color="rgb(8.433533%, 63.334656%, 79.60968%)" offset="0.3125"/><stop stop-opacity="1" stop-color="rgb(8.239746%, 63.739014%, 79.803467%)" offset="0.316406"/><stop stop-opacity="1" stop-color="rgb(8.239746%, 63.949585%, 79.998779%)" offset="0.320312"/><stop stop-opacity="1" stop-color="rgb(8.239746%, 64.135742%, 80.194092%)" offset="0.328125"/><stop stop-opacity="1" stop-color="rgb(8.239746%, 64.515686%, 80.389404%)" offset="0.335938"/><stop stop-opacity="1" stop-color="rgb(8.039856%, 64.903259%, 80.570984%)" offset="0.339844"/><stop stop-opacity="1" stop-color="rgb(7.839966%, 65.098572%, 80.754089%)" offset="0.34375"/><stop stop-opacity="1" stop-color="rgb(7.839966%, 65.293884%, 80.766296%)" offset="0.351562"/><stop stop-opacity="1" stop-color="rgb(7.839966%, 65.878296%, 80.978394%)" offset="0.355469"/><stop stop-opacity="1" stop-color="rgb(7.839966%, 66.268921%, 81.17981%)" offset="0.359375"/><stop stop-opacity="1" stop-color="rgb(7.830811%, 66.468811%, 81.373596%)" offset="0.363281"/><stop stop-opacity="1" stop-color="rgb(7.821655%, 66.668701%, 81.568909%)" offset="0.367188"/><stop stop-opacity="1" stop-color="rgb(7.635498%, 66.864014%, 81.568909%)" offset="0.375"/><stop stop-opacity="1" stop-color="rgb(7.449341%, 67.243958%, 81.755066%)" offset="0.382813"/><stop stop-opacity="1" stop-color="rgb(7.449341%, 67.616272%, 81.950378%)" offset="0.390625"/><stop stop-opacity="1" stop-color="rgb(7.449341%, 68.02063%, 82.15332%)" offset="0.394531"/><stop stop-opacity="1" stop-color="rgb(7.449341%, 68.238831%, 82.348633%)" offset="0.398438"/><stop stop-opacity="1" stop-color="rgb(7.254028%, 68.434143%, 82.36084%)" offset="0.40625"/><stop stop-opacity="1" stop-color="rgb(7.058716%, 68.823242%, 82.562256%)" offset="0.414062"/><stop stop-opacity="1" stop-color="rgb(7.058716%, 69.207764%, 82.937622%)" offset="0.421875"/><stop stop-opacity="1" stop-color="rgb(7.058716%, 69.58313%, 83.132935%)" offset="0.429688"/><stop stop-opacity="1" stop-color="rgb(6.887817%, 69.984436%, 83.334351%)" offset="0.433594"/><stop stop-opacity="1" stop-color="rgb(6.718445%, 70.199585%, 83.529663%)" offset="0.4375"/><stop stop-opacity="1" stop-color="rgb(6.694031%, 70.40863%, 83.544922%)" offset="0.441406"/><stop stop-opacity="1" stop-color="rgb(6.669617%, 70.619202%, 83.560181%)" offset="0.445313"/><stop stop-opacity="1" stop-color="rgb(6.669617%, 70.805359%, 83.738708%)" offset="0.453125"/><stop stop-opacity="1" stop-color="rgb(6.669617%, 71.180725%, 84.111023%)" offset="0.460938"/><stop stop-opacity="1" stop-color="rgb(6.481934%, 71.563721%, 84.306335%)" offset="0.46875"/><stop stop-opacity="1" stop-color="rgb(6.282043%, 71.958923%, 84.486389%)" offset="0.472656"/><stop stop-opacity="1" stop-color="rgb(6.269836%, 72.158813%, 84.664917%)" offset="0.476563"/><stop stop-opacity="1" stop-color="rgb(6.269836%, 72.372437%, 84.70459%)" offset="0.480469"/><stop stop-opacity="1" stop-color="rgb(6.269836%, 72.58606%, 84.745789%)" offset="0.484375"/><stop stop-opacity="1" stop-color="rgb(6.269836%, 72.770691%, 84.922791%)" offset="0.492188"/><stop stop-opacity="1" stop-color="rgb(6.269836%, 73.342896%, 85.293579%)" offset="0.496094"/><stop stop-opacity="1" stop-color="rgb(6.269836%, 73.728943%, 85.488892%)" offset="0.5"/><stop stop-opacity="1" stop-color="rgb(6.074524%, 73.9151%, 85.488892%)" offset="0.507812"/><stop stop-opacity="1" stop-color="rgb(5.879211%, 74.285889%, 85.665894%)" offset="0.515625"/><stop stop-opacity="1" stop-color="rgb(5.879211%, 74.685669%, 85.882568%)" offset="0.519531"/><stop stop-opacity="1" stop-color="rgb(5.879211%, 74.899292%, 85.922241%)" offset="0.523437"/><stop stop-opacity="1" stop-color="rgb(5.867004%, 75.094604%, 86.094666%)" offset="0.53125"/><stop stop-opacity="1" stop-color="rgb(5.671692%, 75.489807%, 86.271667%)" offset="0.535156"/><stop stop-opacity="1" stop-color="rgb(5.488586%, 75.689697%, 86.274719%)" offset="0.539062"/><stop stop-opacity="1" stop-color="rgb(5.488586%, 75.87738%, 86.471558%)" offset="0.542969"/><stop stop-opacity="1" stop-color="rgb(5.488586%, 76.066589%, 86.669922%)" offset="0.546875"/><stop stop-opacity="1" stop-color="rgb(5.488586%, 76.252747%, 86.84845%)" offset="0.554688"/><stop stop-opacity="1" stop-color="rgb(5.488586%, 76.623535%, 87.043762%)" offset="0.5625"/><stop stop-opacity="1" stop-color="rgb(5.293274%, 77.044678%, 87.254333%)" offset="0.566406"/><stop stop-opacity="1" stop-color="rgb(5.099487%, 77.279663%, 87.449646%)" offset="0.570312"/><stop stop-opacity="1" stop-color="rgb(5.099487%, 77.470398%, 87.45575%)" offset="0.578125"/><stop stop-opacity="1" stop-color="rgb(5.099487%, 77.850342%, 87.649536%)" offset="0.585938"/><stop stop-opacity="1" stop-color="rgb(5.099487%, 78.233337%, 88.026428%)" offset="0.59375"/><stop stop-opacity="1" stop-color="rgb(4.904175%, 78.623962%, 88.226318%)" offset="0.601562"/><stop stop-opacity="1" stop-color="rgb(4.708862%, 79.037476%, 88.433838%)" offset="0.605469"/><stop stop-opacity="1" stop-color="rgb(4.708862%, 79.255676%, 88.62915%)" offset="0.609375"/><stop stop-opacity="1" stop-color="rgb(4.708862%, 79.441833%, 88.638306%)" offset="0.617187"/><stop stop-opacity="1" stop-color="rgb(4.708862%, 79.812622%, 88.833618%)" offset="0.625"/><stop stop-opacity="1" stop-color="rgb(4.518127%, 80.194092%, 89.019775%)" offset="0.632812"/><stop stop-opacity="1" stop-color="rgb(4.318237%, 80.583191%, 89.213562%)" offset="0.640625"/><stop stop-opacity="1" stop-color="rgb(4.309082%, 81.173706%, 89.604187%)" offset="0.644531"/><stop stop-opacity="1" stop-color="rgb(4.309082%, 81.568909%, 89.7995%)" offset="0.648438"/><stop stop-opacity="1" stop-color="rgb(4.309082%, 81.764221%, 89.811707%)" offset="0.65625"/><stop stop-opacity="1" stop-color="rgb(4.11377%, 82.15332%, 90.011597%)" offset="0.664062"/><stop stop-opacity="1" stop-color="rgb(3.919983%, 82.542419%, 90.19928%)" offset="0.671875"/><stop stop-opacity="1" stop-color="rgb(3.919983%, 82.922363%, 90.394592%)" offset="0.679688"/><stop stop-opacity="1" stop-color="rgb(3.919983%, 83.294678%, 90.759277%)" offset="0.6875"/><stop stop-opacity="1" stop-color="rgb(3.72467%, 83.699036%, 90.95459%)" offset="0.691406"/><stop stop-opacity="1" stop-color="rgb(3.529358%, 83.918762%, 90.979004%)" offset="0.695312"/><stop stop-opacity="1" stop-color="rgb(3.529358%, 84.114075%, 91.174316%)" offset="0.703125"/><stop stop-opacity="1" stop-color="rgb(3.529358%, 84.506226%, 91.369629%)" offset="0.707031"/><stop stop-opacity="1" stop-color="rgb(3.529358%, 84.703064%, 91.369629%)" offset="0.710937"/><stop stop-opacity="1" stop-color="rgb(3.529358%, 84.901428%, 91.563416%)" offset="0.714844"/><stop stop-opacity="1" stop-color="rgb(3.529358%, 85.099792%, 91.758728%)" offset="0.71875"/><stop stop-opacity="1" stop-color="rgb(3.355408%, 85.293579%, 91.758728%)" offset="0.726562"/><stop stop-opacity="1" stop-color="rgb(3.160095%, 85.702515%, 91.958618%)" offset="0.730469"/><stop stop-opacity="1" stop-color="rgb(3.138733%, 85.916138%, 92.158508%)" offset="0.734375"/><stop stop-opacity="1" stop-color="rgb(3.138733%, 86.102295%, 92.353821%)" offset="0.742188"/><stop stop-opacity="1" stop-color="rgb(3.138733%, 86.479187%, 92.549133%)" offset="0.75"/><stop stop-opacity="1" stop-color="rgb(3.138733%, 86.863708%, 92.744446%)" offset="0.757812"/><stop stop-opacity="1" stop-color="rgb(2.94342%, 87.254333%, 92.939758%)" offset="0.765625"/><stop stop-opacity="1" stop-color="rgb(2.749634%, 87.666321%, 93.133545%)" offset="0.769531"/><stop stop-opacity="1" stop-color="rgb(2.749634%, 87.882996%, 93.328857%)" offset="0.773438"/><stop stop-opacity="1" stop-color="rgb(2.749634%, 88.072205%, 93.528748%)" offset="0.777344"/><stop stop-opacity="1" stop-color="rgb(2.749634%, 88.262939%, 93.728638%)" offset="0.78125"/><stop stop-opacity="1" stop-color="rgb(2.746582%, 88.641357%, 93.728638%)" offset="0.785156"/><stop stop-opacity="1" stop-color="rgb(2.74353%, 89.019775%, 93.728638%)" offset="0.789062"/><stop stop-opacity="1" stop-color="rgb(2.546692%, 89.207458%, 93.917847%)" offset="0.792969"/><stop stop-opacity="1" stop-color="rgb(2.349854%, 89.396667%, 94.107056%)" offset="0.796875"/><stop stop-opacity="1" stop-color="rgb(2.349854%, 89.582825%, 94.113159%)" offset="0.804687"/><stop stop-opacity="1" stop-color="rgb(2.349854%, 89.958191%, 94.314575%)" offset="0.8125"/><stop stop-opacity="1" stop-color="rgb(2.334595%, 90.368652%, 94.703674%)" offset="0.816406"/><stop stop-opacity="1" stop-color="rgb(2.319336%, 90.589905%, 94.898987%)" offset="0.820313"/><stop stop-opacity="1" stop-color="rgb(2.139282%, 90.783691%, 94.898987%)" offset="0.828125"/><stop stop-opacity="1" stop-color="rgb(1.959229%, 91.171265%, 95.091248%)" offset="0.835938"/><stop stop-opacity="1" stop-color="rgb(1.959229%, 91.548157%, 95.28656%)" offset="0.84375"/><stop stop-opacity="1" stop-color="rgb(1.959229%, 91.925049%, 95.489502%)" offset="0.847656"/><stop stop-opacity="1" stop-color="rgb(1.959229%, 92.115784%, 95.689392%)" offset="0.851562"/><stop stop-opacity="1" stop-color="rgb(1.763916%, 92.350769%, 95.707703%)" offset="0.855469"/><stop stop-opacity="1" stop-color="rgb(1.568604%, 92.585754%, 95.726013%)" offset="0.859375"/><stop stop-opacity="1" stop-color="rgb(1.568604%, 92.770386%, 95.901489%)" offset="0.867188"/><stop stop-opacity="1" stop-color="rgb(1.568604%, 93.1427%, 96.273804%)" offset="0.875"/><stop stop-opacity="1" stop-color="rgb(1.568604%, 93.528748%, 96.469116%)" offset="0.878906"/><stop stop-opacity="1" stop-color="rgb(1.568604%, 93.728638%, 96.469116%)" offset="0.882812"/><stop stop-opacity="1" stop-color="rgb(1.391602%, 93.92395%, 96.664429%)" offset="0.890625"/><stop stop-opacity="1" stop-color="rgb(1.197815%, 94.334412%, 96.879578%)" offset="0.894531"/><stop stop-opacity="1" stop-color="rgb(1.179504%, 94.551086%, 96.90094%)" offset="0.898437"/><stop stop-opacity="1" stop-color="rgb(1.179504%, 94.737244%, 97.07489%)" offset="0.90625"/><stop stop-opacity="1" stop-color="rgb(1.179504%, 95.109558%, 97.44873%)" offset="0.910156"/><stop stop-opacity="1" stop-color="rgb(1.179504%, 95.295715%, 97.648621%)" offset="0.914063"/><stop stop-opacity="1" stop-color="rgb(0.985718%, 95.492554%, 97.648621%)" offset="0.917969"/><stop stop-opacity="1" stop-color="rgb(0.791931%, 95.689392%, 97.648621%)" offset="0.921875"/><stop stop-opacity="1" stop-color="rgb(0.785828%, 96.063232%, 97.828674%)" offset="0.925781"/><stop stop-opacity="1" stop-color="rgb(0.779724%, 96.438599%, 98.008728%)" offset="0.929688"/><stop stop-opacity="1" stop-color="rgb(0.779724%, 96.624756%, 98.023987%)" offset="0.9375"/><stop stop-opacity="1" stop-color="rgb(0.779724%, 97.029114%, 98.234558%)" offset="0.941406"/><stop stop-opacity="1" stop-color="rgb(0.779724%, 97.24884%, 98.429871%)" offset="0.945312"/><stop stop-opacity="1" stop-color="rgb(0.584412%, 97.44873%, 98.434448%)" offset="0.949219"/><stop stop-opacity="1" stop-color="rgb(0.389099%, 97.648621%, 98.440552%)" offset="0.953125"/><stop stop-opacity="1" stop-color="rgb(0.389099%, 97.840881%, 98.629761%)" offset="0.960938"/><stop stop-opacity="1" stop-color="rgb(0.389099%, 98.217773%, 99.006653%)" offset="0.96875"/><stop stop-opacity="1" stop-color="rgb(0.389099%, 98.590088%, 99.206543%)" offset="0.976562"/><stop stop-opacity="1" stop-color="rgb(0.193787%, 98.997498%, 99.414062%)" offset="0.980469"/><stop stop-opacity="1" stop-color="rgb(0%, 99.21875%, 99.609375%)" offset="0.984375"/><stop stop-opacity="1" stop-color="rgb(0%, 99.414062%, 99.61853%)" offset="0.992187"/><stop stop-opacity="1" stop-color="rgb(0%, 99.803162%, 99.813843%)" offset="1"/></linearGradient><clipPath id="eccb2041eb"><path d="M 288.902344 253.148438 L 364.160156 253.148438 L 364.160156 289.589844 L 288.902344 289.589844 Z M 288.902344 253.148438 " clip-rule="nonzero"/></clipPath><clipPath id="920c331081"><path d="M 288.457031 254.679688 L 288.457031 287.816406 C 288.457031 289.144531 289.53125 290.214844 290.855469 290.214844 L 365.390625 290.214844 C 366.714844 290.214844 367.792969 289.144531 367.792969 287.816406 L 367.792969 254.679688 C 367.792969 253.355469 366.714844 252.28125 365.390625 252.28125 L 290.855469 252.28125 C 289.53125 252.28125 288.457031 253.355469 288.457031 254.679688 Z M 288.457031 254.679688 " clip-rule="nonzero"/></clipPath><clipPath id="539487fce2"><path d="M 288.457031 254.679688 L 288.457031 287.816406 C 288.457031 289.144531 289.53125 290.214844 290.855469 290.214844 L 365.390625 290.214844 C 366.714844 290.214844 367.792969 289.144531 367.792969 287.816406 L 367.792969 254.679688 C 367.792969 253.355469 366.714844 252.28125 365.390625 252.28125 L 290.855469 252.28125 C 289.53125 252.28125 288.457031 253.355469 288.457031 254.679688 Z M 288.457031 254.679688 " clip-rule="nonzero"/></clipPath><clipPath id="9df2ff1b43"><path d="M 332.214844 271.042969 C 334.550781 268.242188 337.023438 265.582031 339.980469 263.421875 C 341.09375 262.613281 342.277344 261.933594 343.539062 261.378906 C 343.914062 261.21875 344.292969 261.074219 344.683594 260.953125 C 345.070312 260.832031 345.464844 260.734375 345.863281 260.65625 C 346.261719 260.582031 346.664062 260.527344 347.070312 260.492188 C 347.476562 260.460938 347.878906 260.449219 348.285156 260.464844 C 348.695312 260.476562 349.097656 260.511719 349.5 260.570312 C 349.902344 260.628906 350.300781 260.707031 350.695312 260.808594 C 351.089844 260.910156 351.476562 261.035156 351.855469 261.179688 C 352.234375 261.324219 352.605469 261.488281 352.96875 261.675781 C 353.328125 261.863281 353.679688 262.066406 354.019531 262.292969 C 354.355469 262.519531 354.683594 262.761719 354.992188 263.023438 C 355.304688 263.285156 355.601562 263.5625 355.882812 263.855469 C 356.160156 264.148438 356.425781 264.457031 356.671875 264.78125 C 356.917969 265.105469 357.144531 265.441406 357.355469 265.789062 C 357.566406 266.140625 357.753906 266.5 357.921875 266.867188 C 358.089844 267.238281 358.238281 267.617188 358.367188 268.003906 C 358.496094 268.386719 358.597656 268.78125 358.683594 269.179688 C 358.765625 269.578125 358.828125 269.980469 358.867188 270.382812 C 358.90625 270.789062 358.921875 271.191406 358.914062 271.601562 C 358.910156 272.007812 358.878906 272.410156 358.828125 272.816406 C 358.777344 273.21875 358.703125 273.617188 358.609375 274.011719 C 358.511719 274.410156 358.394531 274.796875 358.253906 275.179688 C 358.117188 275.5625 357.957031 275.933594 357.777344 276.300781 C 357.597656 276.664062 357.394531 277.015625 357.175781 277.359375 C 356.957031 277.699219 356.71875 278.03125 356.464844 278.347656 C 356.207031 278.660156 355.933594 278.960938 355.644531 279.246094 C 355.355469 279.53125 355.050781 279.800781 354.730469 280.050781 C 354.410156 280.304688 354.078125 280.535156 353.730469 280.753906 C 353.386719 280.964844 353.03125 281.160156 352.664062 281.335938 C 352.296875 281.511719 351.921875 281.664062 351.535156 281.796875 C 351.152344 281.929688 350.761719 282.042969 350.363281 282.132812 C 349.96875 282.222656 349.566406 282.289062 349.164062 282.335938 C 348.761719 282.378906 348.355469 282.402344 347.949219 282.402344 C 347.128906 282.417969 346.320312 282.332031 345.523438 282.132812 C 344.914062 281.996094 344.320312 281.804688 343.746094 281.570312 C 345.589844 282.425781 347.53125 282.839844 349.566406 282.824219 C 349.964844 282.824219 350.359375 282.808594 350.757812 282.777344 C 351.152344 282.742188 351.546875 282.695312 351.941406 282.628906 C 352.332031 282.566406 352.722656 282.484375 353.109375 282.390625 C 353.496094 282.292969 353.875 282.179688 354.253906 282.054688 C 354.628906 281.925781 355 281.785156 355.363281 281.625 C 355.730469 281.46875 356.089844 281.292969 356.441406 281.105469 C 356.789062 280.917969 357.132812 280.71875 357.46875 280.503906 C 357.800781 280.289062 358.128906 280.058594 358.441406 279.816406 C 358.757812 279.574219 359.066406 279.320312 359.359375 279.054688 C 359.652344 278.789062 359.9375 278.511719 360.210938 278.21875 C 360.480469 277.929688 360.742188 277.628906 360.988281 277.316406 C 361.238281 277.003906 361.472656 276.683594 361.691406 276.355469 C 361.914062 276.023438 362.121094 275.683594 362.316406 275.335938 C 362.507812 274.988281 362.6875 274.636719 362.851562 274.273438 C 363.015625 273.910156 363.167969 273.542969 363.300781 273.167969 C 363.433594 272.792969 363.554688 272.414062 363.65625 272.03125 C 363.761719 271.644531 363.847656 271.257812 363.917969 270.867188 C 363.992188 270.476562 364.046875 270.082031 364.085938 269.6875 C 364.125 269.292969 364.148438 268.894531 364.15625 268.496094 C 364.160156 268.097656 364.152344 267.699219 364.128906 267.304688 C 364.101562 266.90625 364.058594 266.511719 364 266.117188 C 363.941406 265.722656 363.871094 265.335938 363.777344 264.949219 C 363.691406 264.558594 363.582031 264.175781 363.464844 263.796875 C 363.339844 263.417969 363.207031 263.046875 363.050781 262.675781 C 362.902344 262.308594 362.734375 261.949219 362.554688 261.59375 C 362.371094 261.242188 362.175781 260.894531 361.964844 260.558594 C 361.757812 260.21875 361.535156 259.890625 361.296875 259.570312 C 361.058594 259.25 360.8125 258.941406 360.550781 258.640625 C 360.285156 258.34375 360.011719 258.054688 359.726562 257.777344 C 359.441406 257.5 359.144531 257.234375 358.839844 256.984375 C 358.53125 256.730469 358.214844 256.488281 357.886719 256.261719 C 357.5625 256.035156 357.226562 255.824219 356.878906 255.625 C 354.96875 254.511719 352.792969 253.851562 350.609375 253.511719 C 348.363281 253.152344 346.125 253.195312 343.894531 253.644531 C 343.519531 253.722656 343.144531 253.816406 342.777344 253.921875 C 336.488281 255.714844 331.644531 260.5625 327.484375 265.371094 C 324.113281 261.5 320.46875 257.859375 316.253906 255.574219 C 313.472656 254.066406 310.433594 253.148438 307.0625 253.148438 L 307.023438 253.148438 C 306.910156 253.148438 306.800781 253.148438 306.683594 253.148438 C 306.097656 253.160156 305.511719 253.207031 304.929688 253.277344 C 304.347656 253.347656 303.769531 253.445312 303.199219 253.570312 C 302.625 253.699219 302.058594 253.851562 301.503906 254.035156 C 300.941406 254.214844 300.394531 254.421875 299.855469 254.65625 C 299.320312 254.890625 298.792969 255.148438 298.28125 255.433594 C 297.769531 255.71875 297.269531 256.027344 296.789062 256.359375 C 296.304688 256.691406 295.839844 257.046875 295.390625 257.425781 C 294.941406 257.804688 294.511719 258.203125 294.101562 258.621094 C 293.691406 259.042969 293.300781 259.480469 292.933594 259.9375 C 292.566406 260.394531 292.222656 260.867188 291.898438 261.355469 C 291.574219 261.847656 291.277344 262.351562 291.003906 262.871094 C 290.730469 263.390625 290.484375 263.917969 290.261719 264.464844 C 290.039062 265.003906 289.84375 265.558594 289.675781 266.121094 C 289.503906 266.683594 289.363281 267.25 289.25 267.824219 C 289.136719 268.402344 289.050781 268.980469 288.992188 269.566406 C 288.933594 270.148438 288.902344 270.734375 288.902344 271.320312 C 288.902344 271.90625 288.925781 272.492188 288.980469 273.074219 C 289.035156 273.660156 289.121094 274.238281 289.230469 274.816406 C 289.34375 275.390625 289.480469 275.960938 289.644531 276.523438 C 289.8125 277.085938 290.003906 277.640625 290.222656 278.183594 C 290.441406 278.730469 290.6875 279.261719 290.960938 279.78125 C 291.230469 280.300781 291.527344 280.808594 291.84375 281.300781 C 292.164062 281.792969 292.507812 282.265625 292.871094 282.726562 C 293.238281 283.183594 293.625 283.625 294.035156 284.046875 C 294.441406 284.46875 294.867188 284.867188 295.316406 285.25 C 295.761719 285.628906 296.226562 285.988281 296.707031 286.324219 C 297.1875 286.65625 297.683594 286.96875 298.195312 287.257812 C 298.707031 287.542969 299.230469 287.808594 299.769531 288.042969 C 300.304688 288.28125 300.851562 288.492188 301.410156 288.675781 C 301.964844 288.859375 302.527344 289.015625 303.101562 289.144531 C 303.675781 289.277344 304.25 289.378906 304.832031 289.449219 C 305.414062 289.523438 306 289.570312 306.585938 289.589844 L 306.726562 289.589844 C 306.867188 289.589844 307.011719 289.589844 307.15625 289.589844 C 309.300781 289.589844 311.378906 289.226562 313.394531 288.492188 C 313.402344 288.488281 313.410156 288.484375 313.421875 288.480469 C 314.410156 288.109375 315.363281 287.664062 316.277344 287.144531 C 323.074219 283.339844 327.34375 276.886719 332.214844 271.042969 Z M 306.589844 260.433594 C 312.410156 260.039062 317.632812 264.769531 321.339844 269.070312 C 321.859375 269.667969 322.367188 270.277344 322.867188 270.894531 C 320.007812 274.347656 317.238281 277.558594 314.300781 279.691406 C 313.082031 280.578125 311.925781 281.378906 310.46875 281.832031 C 305.625 283.335938 300.238281 281.300781 297.671875 276.90625 C 294.417969 271.328125 297.074219 264.105469 302.828125 261.425781 C 304.019531 260.859375 305.273438 260.527344 306.589844 260.433594 Z M 306.589844 260.433594 " clip-rule="nonzero"/></clipPath><linearGradient x1="494.353229" gradientTransform="matrix(-0.169535, 0, 0, -0.169535, 369.93573, 313.417707)" y1="206.037193" x2="25.963962" gradientUnits="userSpaceOnUse" y2="323.132" id="4c874126ac"><stop stop-opacity="1" stop-color="rgb(0%, 74.899292%, 38.819885%)" offset="0"/><stop stop-opacity="1" stop-color="rgb(0%, 74.899292%, 38.842773%)" offset="0.107979"/><stop stop-opacity="1" stop-color="rgb(0%, 74.899292%, 38.867188%)" offset="0.125"/><stop stop-opacity="1" stop-color="rgb(0%, 74.899292%, 39.042664%)" offset="0.25"/><stop stop-opacity="1" stop-color="rgb(0.193787%, 74.899292%, 39.413452%)" offset="0.257812"/><stop stop-opacity="1" stop-color="rgb(0.389099%, 74.899292%, 39.804077%)" offset="0.265625"/><stop stop-opacity="1" stop-color="rgb(0.584412%, 74.899292%, 40.388489%)" offset="0.269531"/><stop stop-opacity="1" stop-color="rgb(0.779724%, 74.899292%, 40.779114%)" offset="0.273438"/><stop stop-opacity="1" stop-color="rgb(0.779724%, 74.899292%, 40.979004%)" offset="0.277344"/><stop stop-opacity="1" stop-color="rgb(0.779724%, 74.899292%, 41.178894%)" offset="0.28125"/><stop stop-opacity="1" stop-color="rgb(0.979614%, 74.899292%, 41.377258%)" offset="0.285156"/><stop stop-opacity="1" stop-color="rgb(1.179504%, 74.899292%, 41.575623%)" offset="0.289062"/><stop stop-opacity="1" stop-color="rgb(1.179504%, 74.899292%, 41.766357%)" offset="0.296875"/><stop stop-opacity="1" stop-color="rgb(1.179504%, 74.703979%, 42.153931%)" offset="0.304687"/><stop stop-opacity="1" stop-color="rgb(1.373291%, 74.508667%, 42.720032%)" offset="0.308594"/><stop stop-opacity="1" stop-color="rgb(1.568604%, 74.508667%, 43.09082%)" offset="0.3125"/><stop stop-opacity="1" stop-color="rgb(1.568604%, 74.508667%, 43.309021%)" offset="0.316406"/><stop stop-opacity="1" stop-color="rgb(1.568604%, 74.508667%, 43.528748%)" offset="0.320312"/><stop stop-opacity="1" stop-color="rgb(1.763916%, 74.508667%, 43.730164%)" offset="0.324219"/><stop stop-opacity="1" stop-color="rgb(1.959229%, 74.508667%, 43.93158%)" offset="0.328125"/><stop stop-opacity="1" stop-color="rgb(1.959229%, 74.508667%, 44.120789%)" offset="0.335938"/><stop stop-opacity="1" stop-color="rgb(2.142334%, 74.508667%, 44.509888%)" offset="0.339844"/><stop stop-opacity="1" stop-color="rgb(2.325439%, 74.508667%, 44.709778%)" offset="0.34375"/><stop stop-opacity="1" stop-color="rgb(2.337646%, 74.508667%, 45.077515%)" offset="0.347656"/><stop stop-opacity="1" stop-color="rgb(2.349854%, 74.508667%, 45.446777%)" offset="0.351562"/><stop stop-opacity="1" stop-color="rgb(2.368164%, 74.508667%, 45.680237%)" offset="0.355469"/><stop stop-opacity="1" stop-color="rgb(2.386475%, 74.508667%, 45.915222%)" offset="0.359375"/><stop stop-opacity="1" stop-color="rgb(2.568054%, 74.508667%, 46.101379%)" offset="0.367188"/><stop stop-opacity="1" stop-color="rgb(2.749634%, 74.508667%, 46.478271%)" offset="0.375"/><stop stop-opacity="1" stop-color="rgb(2.94342%, 74.508667%, 47.04895%)" offset="0.378906"/><stop stop-opacity="1" stop-color="rgb(3.138733%, 74.508667%, 47.43042%)" offset="0.382812"/><stop stop-opacity="1" stop-color="rgb(3.138733%, 74.508667%, 47.616577%)" offset="0.390625"/><stop stop-opacity="1" stop-color="rgb(3.334045%, 74.508667%, 48.042297%)" offset="0.394531"/><stop stop-opacity="1" stop-color="rgb(3.529358%, 74.508667%, 48.28186%)" offset="0.398438"/><stop stop-opacity="1" stop-color="rgb(3.529358%, 74.508667%, 48.468018%)" offset="0.40625"/><stop stop-opacity="1" stop-color="rgb(3.53241%, 74.313354%, 48.838806%)" offset="0.414062"/><stop stop-opacity="1" stop-color="rgb(3.727722%, 74.119568%, 49.406433%)" offset="0.417969"/><stop stop-opacity="1" stop-color="rgb(3.919983%, 74.119568%, 49.787903%)" offset="0.421875"/><stop stop-opacity="1" stop-color="rgb(3.919983%, 74.119568%, 49.977112%)" offset="0.429688"/><stop stop-opacity="1" stop-color="rgb(4.11377%, 74.119568%, 50.354004%)" offset="0.4375"/><stop stop-opacity="1" stop-color="rgb(4.309082%, 74.119568%, 50.775146%)" offset="0.441406"/><stop stop-opacity="1" stop-color="rgb(4.309082%, 74.119568%, 51.010132%)" offset="0.445313"/><stop stop-opacity="1" stop-color="rgb(4.508972%, 74.119568%, 51.194763%)" offset="0.449219"/><stop stop-opacity="1" stop-color="rgb(4.708862%, 74.119568%, 51.38092%)" offset="0.453125"/><stop stop-opacity="1" stop-color="rgb(4.708862%, 74.119568%, 51.766968%)" offset="0.457031"/><stop stop-opacity="1" stop-color="rgb(4.708862%, 74.119568%, 52.153015%)" offset="0.460938"/><stop stop-opacity="1" stop-color="rgb(4.891968%, 74.119568%, 52.339172%)" offset="0.46875"/><stop stop-opacity="1" stop-color="rgb(5.08728%, 74.119568%, 52.709961%)" offset="0.476562"/><stop stop-opacity="1" stop-color="rgb(5.117798%, 74.119568%, 53.131104%)" offset="0.480469"/><stop stop-opacity="1" stop-color="rgb(5.136108%, 74.119568%, 53.366089%)" offset="0.484375"/><stop stop-opacity="1" stop-color="rgb(5.311584%, 74.119568%, 53.742981%)" offset="0.488281"/><stop stop-opacity="1" stop-color="rgb(5.488586%, 74.119568%, 54.119873%)" offset="0.492188"/><stop stop-opacity="1" stop-color="rgb(5.488586%, 74.119568%, 54.31366%)" offset="0.5"/><stop stop-opacity="1" stop-color="rgb(5.674744%, 74.119568%, 54.695129%)" offset="0.507812"/><stop stop-opacity="1" stop-color="rgb(5.870056%, 74.119568%, 55.084229%)" offset="0.511719"/><stop stop-opacity="1" stop-color="rgb(5.879211%, 74.119568%, 55.288696%)" offset="0.515625"/><stop stop-opacity="1" stop-color="rgb(6.074524%, 73.924255%, 55.509949%)" offset="0.519531"/><stop stop-opacity="1" stop-color="rgb(6.269836%, 73.728943%, 55.732727%)" offset="0.523438"/><stop stop-opacity="1" stop-color="rgb(6.269836%, 73.728943%, 56.100464%)" offset="0.527344"/><stop stop-opacity="1" stop-color="rgb(6.269836%, 73.728943%, 56.469727%)" offset="0.53125"/><stop stop-opacity="1" stop-color="rgb(6.272888%, 73.728943%, 56.663513%)" offset="0.539062"/><stop stop-opacity="1" stop-color="rgb(6.472778%, 73.728943%, 57.048035%)" offset="0.542969"/><stop stop-opacity="1" stop-color="rgb(6.669617%, 73.728943%, 57.237244%)" offset="0.546875"/><stop stop-opacity="1" stop-color="rgb(6.669617%, 73.728943%, 57.443237%)" offset="0.550781"/><stop stop-opacity="1" stop-color="rgb(6.669617%, 73.728943%, 57.649231%)" offset="0.554687"/><stop stop-opacity="1" stop-color="rgb(6.863403%, 73.728943%, 57.844543%)" offset="0.5625"/><stop stop-opacity="1" stop-color="rgb(7.058716%, 73.728943%, 58.428955%)" offset="0.566406"/><stop stop-opacity="1" stop-color="rgb(7.058716%, 73.728943%, 58.81958%)" offset="0.570312"/><stop stop-opacity="1" stop-color="rgb(7.254028%, 73.728943%, 59.01947%)" offset="0.574219"/><stop stop-opacity="1" stop-color="rgb(7.449341%, 73.728943%, 59.21936%)" offset="0.578125"/><stop stop-opacity="1" stop-color="rgb(7.449341%, 73.728943%, 59.411621%)" offset="0.585938"/><stop stop-opacity="1" stop-color="rgb(7.449341%, 73.728943%, 59.80072%)" offset="0.589844"/><stop stop-opacity="1" stop-color="rgb(7.449341%, 73.728943%, 59.999084%)" offset="0.59375"/><stop stop-opacity="1" stop-color="rgb(7.644653%, 73.728943%, 60.194397%)" offset="0.601562"/><stop stop-opacity="1" stop-color="rgb(7.858276%, 73.728943%, 60.783386%)" offset="0.605469"/><stop stop-opacity="1" stop-color="rgb(7.876587%, 73.728943%, 61.178589%)" offset="0.609375"/><stop stop-opacity="1" stop-color="rgb(8.058167%, 73.728943%, 61.383057%)" offset="0.613281"/><stop stop-opacity="1" stop-color="rgb(8.239746%, 73.728943%, 61.587524%)" offset="0.617188"/><stop stop-opacity="1" stop-color="rgb(8.239746%, 73.728943%, 61.773682%)" offset="0.625"/><stop stop-opacity="1" stop-color="rgb(8.424377%, 73.728943%, 62.153625%)" offset="0.632812"/><stop stop-opacity="1" stop-color="rgb(8.61969%, 73.529053%, 62.72583%)" offset="0.636719"/><stop stop-opacity="1" stop-color="rgb(8.628845%, 73.329163%, 63.102722%)" offset="0.640625"/><stop stop-opacity="1" stop-color="rgb(8.824158%, 73.329163%, 63.316345%)" offset="0.644531"/><stop stop-opacity="1" stop-color="rgb(9.01947%, 73.329163%, 63.529968%)" offset="0.648438"/><stop stop-opacity="1" stop-color="rgb(9.01947%, 73.329163%, 63.735962%)" offset="0.652344"/><stop stop-opacity="1" stop-color="rgb(9.01947%, 73.329163%, 63.943481%)" offset="0.65625"/><stop stop-opacity="1" stop-color="rgb(9.022522%, 73.329163%, 64.129639%)" offset="0.664062"/><stop stop-opacity="1" stop-color="rgb(9.216309%, 73.329163%, 64.512634%)" offset="0.667969"/><stop stop-opacity="1" stop-color="rgb(9.408569%, 73.329163%, 64.709473%)" offset="0.671875"/><stop stop-opacity="1" stop-color="rgb(9.408569%, 73.329163%, 65.083313%)" offset="0.675781"/><stop stop-opacity="1" stop-color="rgb(9.408569%, 73.329163%, 65.458679%)" offset="0.679688"/><stop stop-opacity="1" stop-color="rgb(9.579468%, 73.329163%, 65.644836%)" offset="0.6875"/><stop stop-opacity="1" stop-color="rgb(9.77478%, 73.329163%, 66.065979%)" offset="0.691406"/><stop stop-opacity="1" stop-color="rgb(9.799194%, 73.329163%, 66.300964%)" offset="0.695312"/><stop stop-opacity="1" stop-color="rgb(9.999084%, 73.329163%, 66.490173%)" offset="0.699219"/><stop stop-opacity="1" stop-color="rgb(10.198975%, 73.329163%, 66.680908%)" offset="0.703125"/><stop stop-opacity="1" stop-color="rgb(10.198975%, 73.329163%, 66.870117%)" offset="0.710938"/><stop stop-opacity="1" stop-color="rgb(10.198975%, 73.329163%, 67.436218%)" offset="0.714844"/><stop stop-opacity="1" stop-color="rgb(10.198975%, 73.329163%, 67.814636%)" offset="0.71875"/><stop stop-opacity="1" stop-color="rgb(10.394287%, 73.329163%, 68.005371%)" offset="0.726562"/><stop stop-opacity="1" stop-color="rgb(10.60791%, 73.329163%, 68.431091%)" offset="0.730469"/><stop stop-opacity="1" stop-color="rgb(10.626221%, 73.329163%, 68.666077%)" offset="0.734375"/><stop stop-opacity="1" stop-color="rgb(10.801697%, 73.320007%, 68.850708%)" offset="0.742187"/><stop stop-opacity="1" stop-color="rgb(10.978699%, 73.124695%, 69.418335%)" offset="0.746094"/><stop stop-opacity="1" stop-color="rgb(10.978699%, 72.938538%, 69.799805%)" offset="0.75"/><stop stop-opacity="1" stop-color="rgb(11.164856%, 72.938538%, 69.99054%)" offset="0.757813"/><stop stop-opacity="1" stop-color="rgb(11.360168%, 72.938538%, 70.365906%)" offset="0.765625"/><stop stop-opacity="1" stop-color="rgb(11.564636%, 72.938538%, 70.787048%)" offset="0.769531"/><stop stop-opacity="1" stop-color="rgb(11.759949%, 72.938538%, 71.022034%)" offset="0.773438"/><stop stop-opacity="1" stop-color="rgb(11.759949%, 72.938538%, 71.208191%)" offset="0.78125"/><stop stop-opacity="1" stop-color="rgb(11.763%, 72.938538%, 71.775818%)" offset="0.785156"/><stop stop-opacity="1" stop-color="rgb(11.766052%, 72.938538%, 72.158813%)" offset="0.789062"/><stop stop-opacity="1" stop-color="rgb(11.962891%, 72.938538%, 72.348022%)" offset="0.792969"/><stop stop-opacity="1" stop-color="rgb(12.159729%, 72.938538%, 72.537231%)" offset="0.796875"/><stop stop-opacity="1" stop-color="rgb(12.159729%, 72.938538%, 72.723389%)" offset="0.804688"/><stop stop-opacity="1" stop-color="rgb(12.329102%, 72.938538%, 73.118591%)" offset="0.808594"/><stop stop-opacity="1" stop-color="rgb(12.5%, 72.938538%, 73.329163%)" offset="0.8125"/><stop stop-opacity="1" stop-color="rgb(12.524414%, 72.938538%, 73.544312%)" offset="0.816406"/><stop stop-opacity="1" stop-color="rgb(12.548828%, 72.938538%, 73.75946%)" offset="0.820312"/><stop stop-opacity="1" stop-color="rgb(12.744141%, 72.938538%, 74.133301%)" offset="0.824219"/><stop stop-opacity="1" stop-color="rgb(12.939453%, 72.938538%, 74.508667%)" offset="0.828125"/><stop stop-opacity="1" stop-color="rgb(12.939453%, 72.938538%, 74.700928%)" offset="0.835938"/><stop stop-opacity="1" stop-color="rgb(12.939453%, 72.938538%, 75.079346%)" offset="0.84375"/><stop stop-opacity="1" stop-color="rgb(13.13324%, 72.938538%, 75.4776%)" offset="0.847656"/><stop stop-opacity="1" stop-color="rgb(13.328552%, 72.938538%, 75.689697%)" offset="0.851562"/><stop stop-opacity="1" stop-color="rgb(13.346863%, 72.743225%, 76.078796%)" offset="0.855469"/><stop stop-opacity="1" stop-color="rgb(13.366699%, 72.549438%, 76.469421%)" offset="0.859375"/><stop stop-opacity="1" stop-color="rgb(13.548279%, 72.549438%, 76.663208%)" offset="0.867188"/><stop stop-opacity="1" stop-color="rgb(13.729858%, 72.549438%, 77.053833%)" offset="0.875"/><stop stop-opacity="1" stop-color="rgb(13.91449%, 72.549438%, 77.449036%)" offset="0.878906"/><stop stop-opacity="1" stop-color="rgb(14.100647%, 72.549438%, 77.648926%)" offset="0.882812"/><stop stop-opacity="1" stop-color="rgb(14.109802%, 72.549438%, 77.844238%)" offset="0.890625"/><stop stop-opacity="1" stop-color="rgb(14.14032%, 72.549438%, 78.42865%)" offset="0.894531"/><stop stop-opacity="1" stop-color="rgb(14.161682%, 72.549438%, 78.819275%)" offset="0.898438"/><stop stop-opacity="1" stop-color="rgb(14.335632%, 72.549438%, 79.019165%)" offset="0.902344"/><stop stop-opacity="1" stop-color="rgb(14.509583%, 72.549438%, 79.219055%)" offset="0.90625"/><stop stop-opacity="1" stop-color="rgb(14.512634%, 72.549438%, 79.417419%)" offset="0.910156"/><stop stop-opacity="1" stop-color="rgb(14.515686%, 72.549438%, 79.615784%)" offset="0.914062"/><stop stop-opacity="1" stop-color="rgb(14.706421%, 72.549438%, 79.806519%)" offset="0.921875"/><stop stop-opacity="1" stop-color="rgb(14.898682%, 72.549438%, 80.194092%)" offset="0.929688"/><stop stop-opacity="1" stop-color="rgb(15.06958%, 72.549438%, 80.758667%)" offset="0.933594"/><stop stop-opacity="1" stop-color="rgb(15.240479%, 72.549438%, 81.129456%)" offset="0.9375"/><stop stop-opacity="1" stop-color="rgb(15.264893%, 72.549438%, 81.349182%)" offset="0.941406"/><stop stop-opacity="1" stop-color="rgb(15.289307%, 72.549438%, 81.568909%)" offset="0.945313"/><stop stop-opacity="1" stop-color="rgb(15.489197%, 72.549438%, 81.770325%)" offset="0.949219"/><stop stop-opacity="1" stop-color="rgb(15.689087%, 72.549438%, 81.971741%)" offset="0.953125"/><stop stop-opacity="1" stop-color="rgb(15.689087%, 72.549438%, 82.159424%)" offset="0.960938"/><stop stop-opacity="1" stop-color="rgb(15.689087%, 72.549438%, 82.548523%)" offset="0.964844"/><stop stop-opacity="1" stop-color="rgb(15.689087%, 72.549438%, 82.749939%)" offset="0.96875"/><stop stop-opacity="1" stop-color="rgb(15.884399%, 72.354126%, 83.117676%)" offset="0.972656"/><stop stop-opacity="1" stop-color="rgb(16.079712%, 72.158813%, 83.486938%)" offset="0.976562"/><stop stop-opacity="1" stop-color="rgb(16.079712%, 72.158813%, 83.720398%)" offset="0.980469"/><stop stop-opacity="1" stop-color="rgb(16.079712%, 72.158813%, 83.955383%)" offset="0.984375"/><stop stop-opacity="1" stop-color="rgb(16.273499%, 72.158813%, 84.141541%)" offset="0.992188"/><stop stop-opacity="1" stop-color="rgb(16.468811%, 72.158813%, 84.518433%)" offset="1"/></linearGradient><clipPath id="6879b6c864"><path d="M 288.917969 253.148438 L 327.480469 253.148438 L 327.480469 289.585938 L 288.917969 289.585938 Z M 288.917969 253.148438 " clip-rule="nonzero"/></clipPath><clipPath id="9ac081f21b"><path d="M 288.457031 254.679688 L 288.457031 287.816406 C 288.457031 289.144531 289.53125 290.214844 290.855469 290.214844 L 365.390625 290.214844 C 366.714844 290.214844 367.792969 289.144531 367.792969 287.816406 L 367.792969 254.679688 C 367.792969 253.355469 366.714844 252.28125 365.390625 252.28125 L 290.855469 252.28125 C 289.53125 252.28125 288.457031 253.355469 288.457031 254.679688 Z M 288.457031 254.679688 " clip-rule="nonzero"/></clipPath><clipPath id="87b113da26"><path d="M 288.457031 254.679688 L 288.457031 287.816406 C 288.457031 289.144531 289.53125 290.214844 290.855469 290.214844 L 365.390625 290.214844 C 366.714844 290.214844 367.792969 289.144531 367.792969 287.816406 L 367.792969 254.679688 C 367.792969 253.355469 366.714844 252.28125 365.390625 252.28125 L 290.855469 252.28125 C 289.53125 252.28125 288.457031 253.355469 288.457031 254.679688 Z M 288.457031 254.679688 " clip-rule="nonzero"/></clipPath><clipPath id="94a522b2d5"><path d="M 327.480469 265.371094 C 324.109375 261.5 320.464844 257.859375 316.253906 255.574219 C 313.46875 254.066406 310.433594 253.148438 307.058594 253.148438 L 307.019531 253.148438 C 306.90625 253.148438 306.796875 253.148438 306.679688 253.148438 C 306.113281 253.164062 305.546875 253.203125 304.984375 253.269531 C 304.421875 253.339844 303.863281 253.433594 303.308594 253.550781 C 302.753906 253.671875 302.203125 253.816406 301.664062 253.988281 C 301.121094 254.160156 300.589844 254.355469 300.066406 254.574219 C 299.542969 254.796875 299.03125 255.039062 298.53125 255.308594 C 298.03125 255.578125 297.546875 255.867188 297.074219 256.183594 C 296.601562 256.496094 296.144531 256.832031 295.699219 257.1875 C 295.261719 257.542969 294.835938 257.921875 294.429688 258.316406 C 294.023438 258.714844 293.636719 259.128906 293.269531 259.558594 C 292.902344 259.992188 292.554688 260.441406 292.226562 260.902344 C 291.902344 261.371094 291.597656 261.847656 291.316406 262.339844 C 291.035156 262.832031 290.777344 263.339844 290.542969 263.855469 C 290.308594 264.371094 290.101562 264.898438 289.917969 265.4375 C 289.730469 265.972656 289.574219 266.515625 289.4375 267.066406 C 289.304688 267.621094 289.199219 268.175781 289.113281 268.738281 C 289.035156 269.300781 288.976562 269.863281 288.949219 270.429688 C 288.917969 270.996094 288.917969 271.566406 288.941406 272.132812 C 288.964844 272.699219 289.011719 273.261719 289.089844 273.824219 C 289.167969 274.386719 289.269531 274.945312 289.398438 275.496094 C 289.527344 276.050781 289.679688 276.597656 289.859375 277.136719 C 290.039062 277.671875 290.242188 278.203125 290.472656 278.722656 C 290.699219 279.242188 290.953125 279.746094 291.230469 280.246094 C 291.503906 280.738281 291.804688 281.222656 292.125 281.691406 C 292.449219 282.15625 292.789062 282.609375 293.152344 283.042969 C 293.515625 283.480469 293.898438 283.898438 294.300781 284.300781 C 294.703125 284.699219 295.125 285.078125 295.5625 285.441406 C 296 285.800781 296.457031 286.140625 296.925781 286.457031 C 297.394531 286.777344 297.878906 287.074219 298.375 287.347656 C 298.871094 287.621094 299.382812 287.871094 299.902344 288.09375 C 300.421875 288.320312 300.953125 288.519531 301.492188 288.699219 C 302.03125 288.875 302.578125 289.023438 303.132812 289.148438 C 303.683594 289.273438 304.246094 289.375 304.808594 289.449219 C 304.355469 289.382812 303.90625 289.296875 303.464844 289.191406 C 303.019531 289.085938 302.582031 288.960938 302.152344 288.8125 C 301.71875 288.664062 301.292969 288.5 300.878906 288.3125 C 300.464844 288.125 300.058594 287.917969 299.660156 287.695312 C 299.261719 287.46875 298.878906 287.226562 298.503906 286.964844 C 298.128906 286.703125 297.769531 286.425781 297.421875 286.128906 C 297.074219 285.835938 296.738281 285.523438 296.421875 285.199219 C 296.101562 284.871094 295.800781 284.53125 295.511719 284.175781 C 295.226562 283.824219 294.957031 283.457031 294.703125 283.074219 C 294.453125 282.695312 294.21875 282.304688 294.003906 281.902344 C 293.785156 281.5 293.589844 281.089844 293.414062 280.667969 C 293.238281 280.246094 293.082031 279.820312 292.941406 279.386719 C 292.808594 278.949219 292.691406 278.507812 292.59375 278.0625 C 292.5 277.617188 292.425781 277.167969 292.371094 276.714844 C 292.316406 276.261719 292.285156 275.808594 292.277344 275.351562 C 292.265625 274.894531 292.277344 274.441406 292.308594 273.984375 C 292.339844 273.527344 292.394531 273.078125 292.46875 272.628906 C 292.542969 272.175781 292.636719 271.730469 292.753906 271.292969 C 292.871094 270.847656 293.007812 270.414062 293.164062 269.988281 C 293.324219 269.558594 293.5 269.136719 293.695312 268.726562 C 293.890625 268.316406 294.105469 267.914062 294.339844 267.523438 C 294.574219 267.132812 294.828125 266.753906 295.097656 266.382812 C 295.367188 266.015625 295.652344 265.660156 295.957031 265.320312 C 296.261719 264.980469 296.578125 264.652344 296.914062 264.34375 C 297.246094 264.03125 297.59375 263.738281 297.957031 263.460938 C 298.316406 263.183594 298.691406 262.921875 299.074219 262.675781 C 299.460938 262.433594 299.859375 262.210938 300.265625 262.003906 C 300.671875 261.796875 301.089844 261.613281 301.511719 261.445312 C 301.9375 261.277344 302.367188 261.128906 302.808594 261.003906 C 303.246094 260.878906 303.6875 260.769531 304.136719 260.6875 C 304.582031 260.601562 305.035156 260.539062 305.488281 260.496094 C 305.941406 260.453125 306.398438 260.429688 306.855469 260.429688 L 306.585938 260.429688 C 312.40625 260.03125 317.628906 264.765625 321.335938 269.0625 C 321.855469 269.667969 322.363281 270.277344 322.863281 270.890625 Z M 304.8125 289.441406 C 305.402344 289.527344 305.992188 289.574219 306.585938 289.585938 C 305.984375 289.570312 305.390625 289.527344 304.8125 289.453125 Z M 304.8125 289.441406 " clip-rule="nonzero"/></clipPath><linearGradient x1="478.571122" gradientTransform="matrix(-0.169535, 0, 0, -0.169535, 369.93573, 313.417707)" y1="247.337022" x2="249.738037" gradientUnits="userSpaceOnUse" y2="248.799" id="c62a65dc6f"><stop stop-opacity="1" stop-color="rgb(22.348022%, 69.018555%, 29.798889%)" offset="0"/><stop stop-opacity="1" stop-color="rgb(22.15271%, 69.018555%, 29.798889%)" offset="0.00600031"/><stop stop-opacity="1" stop-color="rgb(21.958923%, 69.018555%, 29.798889%)" offset="0.015625"/><stop stop-opacity="1" stop-color="rgb(21.861267%, 69.018555%, 29.798889%)" offset="0.0234375"/><stop stop-opacity="1" stop-color="rgb(21.662903%, 69.018555%, 29.801941%)" offset="0.03125"/><stop stop-opacity="1" stop-color="rgb(21.37146%, 69.018555%, 30.000305%)" offset="0.046875"/><stop stop-opacity="1" stop-color="rgb(21.180725%, 69.207764%, 30.197144%)" offset="0.0625"/><stop stop-opacity="1" stop-color="rgb(21.081543%, 69.403076%, 30.198669%)" offset="0.0703125"/><stop stop-opacity="1" stop-color="rgb(20.880127%, 69.40918%, 30.200195%)" offset="0.078125"/><stop stop-opacity="1" stop-color="rgb(20.585632%, 69.40918%, 30.392456%)" offset="0.09375"/><stop stop-opacity="1" stop-color="rgb(20.292664%, 69.40918%, 30.586243%)" offset="0.101563"/><stop stop-opacity="1" stop-color="rgb(20.091248%, 69.413757%, 30.589294%)" offset="0.109375"/><stop stop-opacity="1" stop-color="rgb(19.799805%, 69.60907%, 30.589294%)" offset="0.125"/><stop stop-opacity="1" stop-color="rgb(19.418335%, 69.799805%, 30.780029%)" offset="0.140625"/><stop stop-opacity="1" stop-color="rgb(19.12384%, 69.799805%, 30.975342%)" offset="0.148438"/><stop stop-opacity="1" stop-color="rgb(18.916321%, 69.799805%, 30.979919%)" offset="0.15625"/><stop stop-opacity="1" stop-color="rgb(18.6203%, 69.799805%, 31.167603%)" offset="0.1875"/><stop stop-opacity="1" stop-color="rgb(18.333435%, 69.897461%, 31.362915%)" offset="0.195312"/><stop stop-opacity="1" stop-color="rgb(18.136597%, 70.097351%, 31.370544%)" offset="0.203125"/><stop stop-opacity="1" stop-color="rgb(17.845154%, 70.199585%, 31.562805%)" offset="0.21875"/><stop stop-opacity="1" stop-color="rgb(17.550659%, 70.199585%, 31.756592%)" offset="0.226562"/><stop stop-opacity="1" stop-color="rgb(17.34314%, 70.199585%, 31.759644%)" offset="0.234375"/><stop stop-opacity="1" stop-color="rgb(17.048645%, 70.199585%, 31.759644%)" offset="0.25"/><stop stop-opacity="1" stop-color="rgb(16.668701%, 70.388794%, 31.954956%)" offset="0.265625"/><stop stop-opacity="1" stop-color="rgb(16.375732%, 70.584106%, 32.154846%)" offset="0.273437"/><stop stop-opacity="1" stop-color="rgb(16.174316%, 70.588684%, 32.159424%)" offset="0.28125"/><stop stop-opacity="1" stop-color="rgb(15.882874%, 70.588684%, 32.159424%)" offset="0.296875"/><stop stop-opacity="1" stop-color="rgb(15.496826%, 70.588684%, 32.348633%)" offset="0.3125"/><stop stop-opacity="1" stop-color="rgb(15.293884%, 70.783997%, 32.542419%)" offset="0.328125"/><stop stop-opacity="1" stop-color="rgb(15.09552%, 70.979309%, 32.548523%)" offset="0.34375"/><stop stop-opacity="1" stop-color="rgb(14.802551%, 70.979309%, 32.646179%)" offset="0.351562"/><stop stop-opacity="1" stop-color="rgb(14.601135%, 70.979309%, 32.841492%)" offset="0.359375"/><stop stop-opacity="1" stop-color="rgb(14.309692%, 70.979309%, 32.939148%)" offset="0.375"/><stop stop-opacity="1" stop-color="rgb(13.928223%, 71.170044%, 33.129883%)" offset="0.390625"/><stop stop-opacity="1" stop-color="rgb(13.635254%, 71.365356%, 33.325195%)" offset="0.398437"/><stop stop-opacity="1" stop-color="rgb(13.426208%, 71.369934%, 33.329773%)" offset="0.40625"/><stop stop-opacity="1" stop-color="rgb(13.131714%, 71.369934%, 33.329773%)" offset="0.421875"/><stop stop-opacity="1" stop-color="rgb(12.75177%, 71.369934%, 33.52356%)" offset="0.4375"/><stop stop-opacity="1" stop-color="rgb(12.553406%, 71.37146%, 33.72345%)" offset="0.453125"/><stop stop-opacity="1" stop-color="rgb(12.355042%, 71.562195%, 33.729553%)" offset="0.46875"/><stop stop-opacity="1" stop-color="rgb(12.060547%, 71.755981%, 33.827209%)" offset="0.476562"/><stop stop-opacity="1" stop-color="rgb(11.853027%, 71.759033%, 34.022522%)" offset="0.484375"/><stop stop-opacity="1" stop-color="rgb(11.558533%, 71.759033%, 34.118652%)" offset="0.5"/><stop stop-opacity="1" stop-color="rgb(11.178589%, 71.759033%, 34.118652%)" offset="0.515625"/><stop stop-opacity="1" stop-color="rgb(10.887146%, 71.858215%, 34.214783%)" offset="0.523438"/><stop stop-opacity="1" stop-color="rgb(10.684204%, 72.058105%, 34.410095%)" offset="0.53125"/><stop stop-opacity="1" stop-color="rgb(10.392761%, 72.158813%, 34.509277%)" offset="0.546875"/><stop stop-opacity="1" stop-color="rgb(10.006714%, 72.158813%, 34.509277%)" offset="0.5625"/><stop stop-opacity="1" stop-color="rgb(9.803772%, 72.160339%, 34.70459%)" offset="0.578125"/><stop stop-opacity="1" stop-color="rgb(9.605408%, 72.3526%, 34.899902%)" offset="0.59375"/><stop stop-opacity="1" stop-color="rgb(9.313965%, 72.546387%, 34.997559%)" offset="0.601562"/><stop stop-opacity="1" stop-color="rgb(9.111023%, 72.549438%, 35.191345%)" offset="0.609375"/><stop stop-opacity="1" stop-color="rgb(8.81958%, 72.549438%, 35.289001%)" offset="0.625"/><stop stop-opacity="1" stop-color="rgb(8.43811%, 72.549438%, 35.289001%)" offset="0.640625"/><stop stop-opacity="1" stop-color="rgb(8.145142%, 72.645569%, 35.388184%)" offset="0.648438"/><stop stop-opacity="1" stop-color="rgb(7.936096%, 72.840881%, 35.588074%)" offset="0.65625"/><stop stop-opacity="1" stop-color="rgb(7.641602%, 72.938538%, 35.688782%)" offset="0.671875"/><stop stop-opacity="1" stop-color="rgb(7.261658%, 72.938538%, 35.688782%)" offset="0.6875"/><stop stop-opacity="1" stop-color="rgb(7.063293%, 72.938538%, 35.884094%)" offset="0.703125"/><stop stop-opacity="1" stop-color="rgb(6.864929%, 72.938538%, 36.079407%)" offset="0.71875"/><stop stop-opacity="1" stop-color="rgb(6.57196%, 73.036194%, 36.079407%)" offset="0.726562"/><stop stop-opacity="1" stop-color="rgb(6.364441%, 73.231506%, 36.083984%)" offset="0.734375"/><stop stop-opacity="1" stop-color="rgb(6.069946%, 73.329163%, 36.277771%)" offset="0.75"/><stop stop-opacity="1" stop-color="rgb(5.688477%, 73.329163%, 36.468506%)" offset="0.765625"/><stop stop-opacity="1" stop-color="rgb(5.397034%, 73.329163%, 36.564636%)" offset="0.773438"/><stop stop-opacity="1" stop-color="rgb(5.194092%, 73.332214%, 36.759949%)" offset="0.78125"/><stop stop-opacity="1" stop-color="rgb(4.902649%, 73.530579%, 36.859131%)" offset="0.796875"/><stop stop-opacity="1" stop-color="rgb(4.516602%, 73.727417%, 36.859131%)" offset="0.8125"/><stop stop-opacity="1" stop-color="rgb(4.31366%, 73.728943%, 37.054443%)" offset="0.828125"/><stop stop-opacity="1" stop-color="rgb(4.115295%, 73.728943%, 37.249756%)" offset="0.84375"/><stop stop-opacity="1" stop-color="rgb(3.823853%, 73.826599%, 37.249756%)" offset="0.851562"/><stop stop-opacity="1" stop-color="rgb(3.620911%, 74.021912%, 37.254333%)" offset="0.859375"/><stop stop-opacity="1" stop-color="rgb(3.329468%, 74.119568%, 37.454224%)" offset="0.875"/><stop stop-opacity="1" stop-color="rgb(2.947998%, 74.119568%, 37.649536%)" offset="0.890625"/><stop stop-opacity="1" stop-color="rgb(2.655029%, 74.119568%, 37.649536%)" offset="0.898438"/><stop stop-opacity="1" stop-color="rgb(2.44751%, 74.12262%, 37.652588%)" offset="0.90625"/><stop stop-opacity="1" stop-color="rgb(2.153015%, 74.31488%, 37.844849%)" offset="0.921875"/><stop stop-opacity="1" stop-color="rgb(1.771545%, 74.507141%, 38.037109%)" offset="0.9375"/><stop stop-opacity="1" stop-color="rgb(1.480103%, 74.508667%, 38.13324%)" offset="0.945312"/><stop stop-opacity="1" stop-color="rgb(1.278687%, 74.508667%, 38.328552%)" offset="0.953125"/><stop stop-opacity="1" stop-color="rgb(1.179504%, 74.508667%, 38.42926%)" offset="0.96875"/><stop stop-opacity="1" stop-color="rgb(1.078796%, 74.606323%, 38.42926%)" offset="0.976562"/><stop stop-opacity="1" stop-color="rgb(0.871277%, 74.801636%, 38.43689%)" offset="0.984375"/><stop stop-opacity="1" stop-color="rgb(0.611877%, 74.899292%, 38.595581%)" offset="0.992188"/><stop stop-opacity="1" stop-color="rgb(0.228882%, 74.899292%, 38.783264%)" offset="0.996094"/><stop stop-opacity="1" stop-color="rgb(0%, 74.899292%, 38.819885%)" offset="1"/></linearGradient></defs><path fill="#3fae49" d="M 213.03125 287.984375 C 209.898438 287.984375 207.070312 287.472656 204.542969 286.453125 C 202.011719 285.429688 199.84375 283.964844 198.042969 282.058594 C 196.238281 280.152344 194.851562 277.855469 193.886719 275.167969 C 192.921875 272.480469 192.441406 269.472656 192.441406 266.140625 C 192.441406 262.808594 192.921875 259.808594 193.886719 257.140625 C 194.851562 254.476562 196.238281 252.191406 198.042969 250.285156 C 199.84375 248.378906 202.011719 246.914062 204.542969 245.890625 C 207.070312 244.867188 209.898438 244.355469 213.03125 244.355469 C 216.117188 244.355469 218.925781 244.867188 221.453125 245.890625 C 223.984375 246.914062 226.148438 248.367188 227.953125 250.253906 C 229.757812 252.136719 231.140625 254.414062 232.105469 257.085938 C 233.070312 259.753906 233.554688 262.75 233.554688 266.078125 C 233.554688 269.410156 233.070312 272.417969 232.105469 275.109375 C 231.140625 277.796875 229.757812 280.105469 227.953125 282.027344 C 226.148438 283.953125 223.984375 285.429688 221.453125 286.453125 C 218.925781 287.472656 216.117188 287.984375 213.03125 287.984375 Z M 213.03125 281.121094 C 215.636719 281.121094 217.855469 280.542969 219.679688 279.378906 C 221.503906 278.214844 222.90625 276.511719 223.890625 274.265625 C 224.875 272.015625 225.367188 269.308594 225.367188 266.140625 C 225.367188 262.929688 224.886719 260.210938 223.921875 257.984375 C 222.960938 255.757812 221.554688 254.070312 219.710938 252.929688 C 217.863281 251.785156 215.636719 251.210938 213.03125 251.210938 C 210.421875 251.210938 208.195312 251.785156 206.347656 252.929688 C 204.5 254.070312 203.085938 255.757812 202.105469 257.984375 C 201.121094 260.210938 200.628906 262.929688 200.628906 266.140625 C 200.628906 269.308594 201.121094 272.015625 202.105469 274.265625 C 203.085938 276.511719 204.5 278.214844 206.347656 279.378906 C 208.195312 280.542969 210.421875 281.121094 213.03125 281.121094 Z M 213.03125 281.121094 " fill-opacity="1" fill-rule="nonzero"/><path fill="#3fae49" d="M 238.066406 287.386719 L 238.066406 257.652344 L 245.46875 257.652344 L 245.46875 263.671875 L 245.167969 263.671875 C 246.09375 261.542969 247.496094 259.910156 249.378906 258.765625 C 251.265625 257.621094 253.394531 257.046875 255.761719 257.046875 C 258.167969 257.046875 260.175781 257.5 261.78125 258.402344 C 263.382812 259.308594 264.585938 260.683594 265.386719 262.527344 C 266.1875 264.375 266.59375 266.703125 266.59375 269.511719 L 266.59375 287.386719 L 258.765625 287.386719 L 258.765625 269.871094 C 258.765625 268.386719 258.574219 267.160156 258.191406 266.199219 C 257.8125 265.234375 257.21875 264.515625 256.417969 264.035156 C 255.617188 263.550781 254.574219 263.308594 253.292969 263.308594 C 251.84375 263.308594 250.5625 263.632812 249.4375 264.273438 C 248.3125 264.914062 247.445312 265.820312 246.824219 266.984375 C 246.203125 268.148438 245.890625 269.472656 245.890625 270.953125 L 245.890625 287.386719 Z M 238.066406 287.386719 " fill-opacity="1" fill-rule="nonzero"/><path fill="#3fae49" d="M 281.941406 287.984375 C 278.488281 287.984375 275.902344 287.054688 274.175781 285.191406 C 272.453125 283.324219 271.589844 280.605469 271.589844 277.035156 L 271.589844 244.953125 L 279.414062 244.953125 L 279.414062 276.554688 C 279.414062 277.675781 279.574219 278.617188 279.894531 279.378906 C 280.214844 280.140625 280.699219 280.726562 281.339844 281.128906 C 281.980469 281.527344 282.761719 281.730469 283.683594 281.730469 C 284.207031 281.730469 284.710938 281.699219 285.191406 281.640625 C 285.671875 281.578125 286.152344 281.488281 286.632812 281.367188 L 286.753906 287.324219 C 285.953125 287.527344 285.171875 287.6875 284.410156 287.804688 C 283.644531 287.925781 282.824219 287.984375 281.941406 287.984375 Z M 281.941406 287.984375 " fill-opacity="1" fill-rule="nonzero"/><path fill="#1f78b4" d="M 369.519531 298.214844 L 369.519531 257.652344 L 376.863281 257.652344 L 376.863281 263.792969 L 376.617188 263.792969 C 377.339844 261.703125 378.632812 260.058594 380.5 258.855469 C 382.367188 257.652344 384.542969 257.046875 387.03125 257.046875 C 389.71875 257.046875 392.054688 257.691406 394.042969 258.980469 C 396.03125 260.261719 397.574219 262.046875 398.675781 264.335938 C 399.777344 266.621094 400.332031 269.351562 400.332031 272.515625 C 400.332031 275.566406 399.789062 278.265625 398.707031 280.617188 C 397.621094 282.964844 396.097656 284.777344 394.132812 286.058594 C 392.167969 287.34375 389.820312 287.984375 387.09375 287.984375 C 384.644531 287.984375 382.523438 287.402344 380.738281 286.242188 C 378.953125 285.078125 377.703125 283.554688 376.980469 281.667969 L 377.34375 281.667969 L 377.34375 298.214844 Z M 384.863281 282.027344 C 387.234375 282.027344 389.101562 281.207031 390.460938 279.558594 C 391.824219 277.914062 392.507812 275.546875 392.507812 272.460938 C 392.507812 269.371094 391.824219 267.03125 390.460938 265.449219 C 389.101562 263.859375 387.234375 263.066406 384.863281 263.066406 C 382.539062 263.066406 380.679688 263.859375 379.292969 265.449219 C 377.910156 267.03125 377.21875 269.371094 377.21875 272.460938 C 377.21875 275.546875 377.910156 277.914062 379.292969 279.558594 C 380.679688 281.207031 382.539062 282.027344 384.863281 282.027344 Z M 384.863281 282.027344 " fill-opacity="1" fill-rule="nonzero"/><g clip-path="url(#d44273ed0b)"><g clip-path="url(#6dd2c5e5ed)"><g clip-path="url(#37b4afa286)"><g clip-path="url(#ea1d825854)"><path fill="url(#8e429bbad9)" d="M 366.179688 289.65625 L 366.179688 253.007812 L 288.917969 253.007812 L 288.917969 289.65625 Z M 366.179688 289.65625 " fill-rule="nonzero"/></g></g></g></g><g clip-path="url(#eccb2041eb)"><g clip-path="url(#920c331081)"><g clip-path="url(#539487fce2)"><g clip-path="url(#9df2ff1b43)"><path fill="url(#4c874126ac)" d="M 364.160156 289.589844 L 364.160156 253.148438 L 288.902344 253.148438 L 288.902344 289.589844 Z M 364.160156 289.589844 " fill-rule="nonzero"/></g></g></g></g><g clip-path="url(#6879b6c864)"><g clip-path="url(#9ac081f21b)"><g clip-path="url(#87b113da26)"><g clip-path="url(#94a522b2d5)"><path fill="url(#c62a65dc6f)" d="M 327.480469 289.585938 L 327.480469 253.148438 L 288.917969 253.148438 L 288.917969 289.585938 Z M 327.480469 289.585938 " fill-rule="nonzero"/></g></g></g></g><path fill="#0c5f96" d="M 244.425781 308.082031 L 244.164062 308.082031 C 244.164062 307.757812 243.957031 307.59375 243.542969 307.59375 L 234.480469 307.59375 L 234.480469 310.945312 L 240.382812 310.945312 C 240.585938 310.945312 240.746094 310.910156 240.855469 310.839844 C 240.96875 310.769531 241.027344 310.636719 241.027344 310.449219 L 241.289062 310.449219 L 241.289062 313.613281 L 241.027344 313.613281 C 241.027344 313.308594 240.816406 313.15625 240.402344 313.15625 L 234.480469 313.15625 L 234.480469 316.84375 L 243.695312 316.84375 C 244.121094 316.84375 244.332031 316.695312 244.332031 316.394531 L 244.59375 316.394531 L 244.59375 319.476562 L 244.332031 319.476562 C 244.332031 319.199219 244.121094 319.0625 243.695312 319.0625 L 231.324219 319.0625 L 231.324219 318.800781 C 231.527344 318.800781 231.65625 318.761719 231.71875 318.6875 C 231.78125 318.613281 231.8125 318.46875 231.8125 318.257812 L 231.8125 306.207031 C 231.8125 306.003906 231.785156 305.855469 231.726562 305.769531 C 231.671875 305.683594 231.539062 305.636719 231.324219 305.636719 L 231.324219 305.375 L 243.527344 305.375 C 243.949219 305.375 244.164062 305.238281 244.164062 304.964844 L 244.425781 304.964844 Z M 244.425781 308.082031 " fill-opacity="1" fill-rule="nonzero"/><path fill="#0c5f96" d="M 257.5625 305.375 L 257.5625 305.636719 C 257.339844 305.636719 257.195312 305.664062 257.136719 305.714844 C 257.082031 305.761719 257.058594 305.8125 257.058594 305.863281 C 257.058594 305.925781 257.125 306.027344 257.261719 306.167969 L 265.425781 314.832031 L 265.425781 306.167969 C 265.425781 305.964844 265.394531 305.824219 265.339844 305.75 C 265.285156 305.675781 265.148438 305.636719 264.933594 305.636719 L 264.933594 305.375 L 268.300781 305.375 L 268.300781 305.636719 C 268.113281 305.636719 267.980469 305.679688 267.90625 305.761719 C 267.832031 305.84375 267.792969 305.992188 267.792969 306.207031 L 267.792969 318.21875 C 267.792969 318.433594 267.828125 318.582031 267.894531 318.667969 C 267.964844 318.757812 268.101562 318.800781 268.300781 318.800781 L 268.300781 319.0625 L 264.820312 319.0625 L 264.820312 318.800781 C 264.917969 318.800781 265.007812 318.792969 265.082031 318.777344 C 265.160156 318.753906 265.199219 318.714844 265.199219 318.652344 C 265.199219 318.574219 265.167969 318.503906 265.105469 318.4375 C 265.042969 318.367188 264.960938 318.277344 264.855469 318.164062 L 256.382812 309.0625 L 256.382812 318.277344 C 256.382812 318.449219 256.414062 318.582031 256.476562 318.667969 C 256.539062 318.757812 256.675781 318.800781 256.886719 318.800781 L 256.886719 319.0625 L 253.5625 319.0625 L 253.5625 318.800781 C 253.761719 318.800781 253.886719 318.761719 253.9375 318.683594 C 253.988281 318.597656 254.011719 318.46875 254.011719 318.292969 L 254.011719 306.167969 C 254.011719 305.964844 253.988281 305.824219 253.9375 305.75 C 253.886719 305.675781 253.761719 305.636719 253.5625 305.636719 L 253.5625 305.375 Z M 257.5625 305.375 " fill-opacity="1" fill-rule="nonzero"/><path fill="#0c5f96" d="M 290.835938 308.082031 L 290.574219 308.082031 C 290.574219 307.757812 290.367188 307.59375 289.957031 307.59375 L 280.894531 307.59375 L 280.894531 310.945312 L 286.792969 310.945312 C 286.996094 310.945312 287.15625 310.910156 287.269531 310.839844 C 287.382812 310.769531 287.4375 310.636719 287.4375 310.449219 L 287.699219 310.449219 L 287.699219 313.613281 L 287.4375 313.613281 C 287.4375 313.308594 287.226562 313.15625 286.8125 313.15625 L 280.894531 313.15625 L 280.894531 316.84375 L 290.105469 316.84375 C 290.53125 316.84375 290.742188 316.695312 290.742188 316.394531 L 291.007812 316.394531 L 291.007812 319.476562 L 290.742188 319.476562 C 290.742188 319.199219 290.53125 319.0625 290.105469 319.0625 L 277.738281 319.0625 L 277.738281 318.800781 C 277.9375 318.800781 278.070312 318.761719 278.132812 318.6875 C 278.195312 318.613281 278.226562 318.46875 278.226562 318.257812 L 278.226562 306.207031 C 278.226562 306.003906 278.195312 305.855469 278.136719 305.769531 C 278.082031 305.683594 277.949219 305.636719 277.738281 305.636719 L 277.738281 305.375 L 289.9375 305.375 C 290.363281 305.375 290.574219 305.238281 290.574219 304.964844 L 290.835938 304.964844 Z M 290.835938 308.082031 " fill-opacity="1" fill-rule="nonzero"/><path fill="#0c5f96" d="M 308.898438 311.019531 C 309.214844 311.019531 309.519531 310.988281 309.804688 310.925781 C 310.09375 310.859375 310.34375 310.753906 310.5625 310.613281 C 310.78125 310.46875 310.957031 310.289062 311.085938 310.074219 C 311.21875 309.863281 311.289062 309.605469 311.289062 309.308594 C 311.289062 308.996094 311.214844 308.730469 311.070312 308.507812 C 310.925781 308.285156 310.742188 308.113281 310.519531 307.980469 C 310.292969 307.847656 310.039062 307.75 309.75 307.6875 C 309.460938 307.625 309.171875 307.59375 308.882812 307.59375 L 303.148438 307.59375 L 303.148438 311.019531 Z M 309.011719 305.375 C 309.726562 305.375 310.386719 305.464844 310.988281 305.636719 C 311.589844 305.8125 312.113281 306.074219 312.554688 306.414062 C 313 306.75 313.347656 307.164062 313.59375 307.652344 C 313.839844 308.136719 313.960938 308.691406 313.960938 309.308594 C 313.960938 310.398438 313.652344 311.292969 313.03125 311.988281 C 312.410156 312.679688 311.492188 313.121094 310.273438 313.3125 L 313.523438 317.917969 C 313.753906 318.246094 313.925781 318.472656 314.039062 318.605469 C 314.148438 318.738281 314.324219 318.800781 314.5625 318.800781 L 314.5625 319.0625 L 310.386719 319.0625 L 310.386719 318.800781 C 310.5 318.800781 310.570312 318.785156 310.601562 318.757812 C 310.632812 318.722656 310.648438 318.6875 310.648438 318.652344 C 310.648438 318.5625 310.625 318.480469 310.582031 318.40625 C 310.539062 318.332031 310.4375 318.183594 310.273438 317.957031 L 306.96875 313.238281 L 303.09375 313.238281 L 303.09375 318.238281 C 303.09375 318.449219 303.125 318.597656 303.1875 318.683594 C 303.25 318.761719 303.394531 318.800781 303.617188 318.800781 L 303.617188 319.0625 L 299.898438 319.0625 L 299.898438 318.800781 C 300.113281 318.800781 300.25 318.761719 300.320312 318.683594 C 300.390625 318.597656 300.425781 318.449219 300.425781 318.238281 L 300.425781 306.1875 C 300.425781 305.984375 300.394531 305.84375 300.332031 305.761719 C 300.269531 305.679688 300.125 305.636719 299.898438 305.636719 L 299.898438 305.375 Z M 309.011719 305.375 " fill-opacity="1" fill-rule="nonzero"/><path fill="#0c5f96" d="M 331.066406 305.1875 C 331.851562 305.1875 332.679688 305.277344 333.546875 305.449219 C 334.410156 305.625 335.277344 305.917969 336.140625 306.320312 C 336.628906 306.542969 336.929688 306.65625 337.046875 306.65625 C 337.207031 306.65625 337.332031 306.589844 337.421875 306.449219 L 337.683594 306.5625 L 335.859375 309.644531 L 335.597656 309.476562 C 335.621094 309.351562 335.632812 309.246094 335.632812 309.15625 C 335.632812 309.007812 335.507812 308.828125 335.257812 308.621094 C 335.007812 308.410156 334.675781 308.21875 334.257812 308.042969 C 333.847656 307.871094 333.367188 307.71875 332.828125 307.59375 C 332.289062 307.46875 331.734375 307.40625 331.160156 307.40625 C 330.347656 307.40625 329.585938 307.507812 328.878906 307.707031 C 328.167969 307.90625 327.554688 308.207031 327.039062 308.601562 C 326.527344 308.996094 326.121094 309.492188 325.828125 310.082031 C 325.535156 310.667969 325.390625 311.355469 325.390625 312.144531 C 325.390625 312.949219 325.527344 313.65625 325.808594 314.261719 C 326.089844 314.867188 326.476562 315.378906 326.964844 315.792969 C 327.457031 316.207031 328.035156 316.519531 328.695312 316.726562 C 329.359375 316.929688 330.074219 317.03125 330.839844 317.03125 C 331.675781 317.03125 332.464844 316.929688 333.203125 316.726562 C 333.941406 316.519531 334.597656 316.214844 335.164062 315.8125 L 335.164062 314.25 L 331.910156 314.25 C 331.757812 314.25 331.621094 314.289062 331.503906 314.363281 C 331.386719 314.4375 331.328125 314.550781 331.328125 314.699219 L 331.066406 314.699219 L 331.066406 311.394531 L 331.328125 311.394531 C 331.328125 311.542969 331.386719 311.65625 331.503906 311.730469 C 331.621094 311.808594 331.757812 311.84375 331.910156 311.84375 L 338.191406 311.84375 L 338.191406 312.105469 C 337.953125 312.144531 337.832031 312.339844 337.832031 312.6875 L 337.832031 316.414062 C 337.832031 316.539062 337.855469 316.644531 337.894531 316.726562 C 337.941406 316.804688 338.035156 316.855469 338.171875 316.882812 L 338.171875 317.144531 C 337.027344 317.800781 335.824219 318.3125 334.550781 318.6875 C 333.28125 319.0625 332.042969 319.25 330.839844 319.25 C 329.621094 319.25 328.515625 319.09375 327.519531 318.78125 C 326.523438 318.46875 325.667969 318.011719 324.953125 317.414062 C 324.238281 316.808594 323.6875 316.074219 323.296875 315.214844 C 322.910156 314.347656 322.714844 313.367188 322.714844 312.277344 C 322.714844 311.4375 322.832031 310.683594 323.070312 310.007812 C 323.3125 309.328125 323.636719 308.726562 324.039062 308.199219 C 324.449219 307.671875 324.925781 307.21875 325.476562 306.839844 C 326.03125 306.457031 326.613281 306.140625 327.226562 305.894531 C 327.84375 305.648438 328.480469 305.46875 329.140625 305.355469 C 329.796875 305.246094 330.441406 305.1875 331.066406 305.1875 Z M 331.066406 305.1875 " fill-opacity="1" fill-rule="nonzero"/><path fill="#0c5f96" d="M 350.519531 305.375 L 350.519531 305.636719 C 350.445312 305.636719 350.382812 305.65625 350.339844 305.695312 C 350.296875 305.730469 350.277344 305.769531 350.277344 305.808594 C 350.277344 305.871094 350.3125 305.949219 350.390625 306.050781 L 353.882812 310.871094 L 357.234375 306.320312 C 357.296875 306.246094 357.351562 306.164062 357.40625 306.074219 C 357.464844 305.984375 357.496094 305.917969 357.496094 305.882812 C 357.496094 305.820312 357.464844 305.769531 357.40625 305.726562 C 357.351562 305.679688 357.296875 305.652344 357.234375 305.636719 L 357.234375 305.375 L 361.082031 305.375 L 361.082031 305.636719 C 360.882812 305.652344 360.703125 305.726562 360.539062 305.863281 C 360.375 306 360.234375 306.160156 360.109375 306.339844 L 355.203125 313.15625 L 355.203125 318.257812 C 355.203125 318.457031 355.234375 318.597656 355.296875 318.683594 C 355.359375 318.761719 355.484375 318.800781 355.671875 318.800781 L 355.671875 319.0625 L 352.082031 319.0625 L 352.082031 318.800781 C 352.269531 318.800781 352.390625 318.761719 352.445312 318.683594 C 352.503906 318.597656 352.53125 318.457031 352.53125 318.257812 L 352.53125 313.15625 L 347.25 306.1875 C 347.085938 305.972656 346.953125 305.832031 346.851562 305.761719 C 346.75 305.691406 346.613281 305.652344 346.4375 305.636719 L 346.4375 305.375 Z M 350.519531 305.375 " fill-opacity="1" fill-rule="nonzero"/><path stroke-linecap="butt" transform="matrix(0.3, 0, 0, 0.3, 195.343498, 314.113655)" fill="none" stroke-linejoin="miter" d="M 0.000838425 1.001357 L 83.946155 1.001357 " stroke="#1f78b4" stroke-width="2" stroke-opacity="1" stroke-miterlimit="4"/><path stroke-linecap="butt" transform="matrix(0.3, 0, 0, 0.3, 366.381928, 313.813655)" fill="none" stroke-linejoin="miter" d="M 0.00294744 0.998753 L 83.948264 0.998753 " stroke="#1f78b4" stroke-width="2" stroke-opacity="1" stroke-miterlimit="4"/></svg>